{"glyphs":{"0":{"ha":500,"x_min":64,"x_max":536,"o":"m 536 799 q 508 506 536 663 q 430 226 479 348 q 200 -14 335 -14 q 64 196 64 -14 q 114 573 64 363 q 238 894 163 782 q 400 1006 313 1006 q 501 953 466 1006 q 536 799 536 900 m 396 942 q 273 831 331 942 q 173 529 214 720 q 131 196 131 337 q 149 85 131 121 q 205 50 166 50 q 329 157 271 50 q 428 457 387 264 q 469 795 469 649 q 396 942 469 942 z "},"1":{"ha":500,"x_min":195,"x_max":469,"o":"m 195 0 l 347 721 l 370 821 l 392 913 l 355 874 q 225 764 334 854 l 195 810 l 407 991 l 469 991 l 260 0 l 195 0 z "},"2":{"ha":500,"x_min":-5,"x_max":546,"o":"m 479 811 q 368 945 479 945 q 306 934 336 945 q 225 888 275 923 l 195 940 q 372 1006 287 1006 q 501 957 456 1006 q 546 814 546 907 q 492 610 546 720 q 300 328 440 500 l 82 61 l 403 61 l 390 0 l -5 0 l 1 53 l 240 347 q 390 546 349 481 q 479 811 479 688 z "},"3":{"ha":500,"x_min":11,"x_max":546,"o":"m 371 1006 q 499 954 452 1006 q 546 818 546 903 q 489 621 546 701 q 338 518 433 541 l 336 514 q 452 314 452 471 q 416 144 452 220 q 317 28 381 69 q 172 -14 254 -14 q 11 20 68 -14 l 11 93 q 164 46 74 46 q 170 46 167 46 q 325 118 265 46 q 385 302 385 191 q 347 437 385 393 q 236 482 309 482 l 192 482 l 204 545 l 244 545 q 413 621 345 545 q 481 810 481 696 q 452 910 481 874 q 375 946 423 946 q 291 931 327 946 q 214 886 255 917 l 183 935 q 371 1006 273 1006 z "},"4":{"ha":500,"x_min":11,"x_max":549,"o":"m 383 225 l 335 0 l 271 0 l 319 225 l 11 225 l 22 282 l 464 1003 l 549 1003 l 396 286 l 490 286 l 478 225 l 383 225 m 437 774 l 475 926 l 469 926 l 401 799 l 89 286 l 332 286 l 437 774 z "},"5":{"ha":500,"x_min":11,"x_max":553,"o":"m 158 46 q 336 125 268 46 q 404 334 404 203 q 367 484 404 431 q 257 536 330 536 q 217 533 237 536 q 149 514 197 530 l 122 557 l 243 991 l 553 991 l 539 928 l 292 928 l 193 583 q 273 593 233 593 q 419 529 368 593 q 471 345 471 465 q 471 340 471 342 q 385 87 471 187 q 163 -14 298 -14 q 155 -14 159 -14 q 74 -4 114 -14 q 11 18 34 5 l 11 93 q 158 46 62 46 z "},"6":{"ha":500,"x_min":71,"x_max":570,"o":"m 347 612 q 450 559 412 612 q 489 421 489 507 q 453 201 489 307 q 358 41 416 96 q 227 -14 299 -14 q 112 47 154 -14 q 71 215 71 107 q 128 607 71 414 q 275 903 186 800 q 472 1006 365 1006 q 570 990 533 1006 l 551 926 q 473 942 519 942 q 163 503 274 942 l 167 503 q 245 583 198 554 q 347 612 293 612 m 134 215 q 160 93 134 137 q 236 49 186 49 q 328 95 286 49 q 398 235 370 142 q 425 402 425 329 q 399 513 425 476 q 329 550 374 550 q 226 510 271 550 q 157 402 180 469 q 134 215 134 335 z "},"7":{"ha":500,"x_min":85,"x_max":595,"o":"m 517 928 l 165 928 l 178 991 l 595 991 l 587 936 l 154 0 l 85 0 l 517 928 z "},"8":{"ha":500,"x_min":24,"x_max":557,"o":"m 24 195 q 80 388 24 310 q 254 526 136 467 q 161 761 161 629 q 224 936 161 867 q 387 1006 286 1006 q 511 956 465 1006 q 557 815 557 906 q 503 647 557 725 q 349 515 449 568 q 438 391 410 454 q 465 256 465 328 q 399 62 465 138 q 231 -14 332 -14 q 77 41 130 -14 q 24 195 24 96 m 228 757 q 311 553 228 642 q 445 665 399 599 q 492 808 492 731 q 463 908 492 871 q 383 945 434 945 q 269 895 309 945 q 228 757 228 846 m 399 253 q 375 371 399 316 q 292 486 351 425 q 136 362 181 429 q 90 199 90 296 q 127 90 90 132 q 225 47 165 47 q 352 103 305 47 q 399 253 399 159 z "},"9":{"ha":500,"x_min":33,"x_max":532,"o":"m 258 379 q 155 437 194 379 q 115 587 115 494 q 152 802 115 700 q 247 955 189 903 q 380 1006 305 1006 q 493 950 454 1006 q 532 789 532 895 q 478 383 532 577 q 338 88 426 189 q 138 -14 250 -14 q 33 1 70 -14 l 33 65 q 138 50 66 50 q 318 162 241 50 q 441 490 395 274 l 437 490 q 358 409 406 439 q 258 379 310 379 m 469 781 q 444 901 469 858 q 369 943 419 943 q 276 897 319 943 q 205 763 233 851 q 178 598 178 675 q 203 481 178 522 q 273 441 228 441 q 376 484 330 441 q 469 781 469 568 z "}," ":{"ha":235,"x_min":0,"x_max":0,"o":""},"!":{"ha":323,"x_min":65,"x_max":359,"o":"m 139 249 l 277 991 l 359 991 l 180 249 l 139 249 m 65 36 q 84 106 65 78 q 135 134 104 134 q 163 119 153 134 q 174 82 174 105 q 155 15 174 41 q 107 -11 136 -11 q 77 2 90 -11 q 65 36 65 14 z "},"\"":{"ha":418,"x_min":144,"x_max":461,"o":"m 186 633 l 144 633 l 200 991 l 279 991 l 186 633 m 367 633 l 325 633 l 382 991 l 461 991 l 367 633 z "},"#":{"ha":530,"x_min":35,"x_max":603,"o":"m 49 378 l 151 378 l 237 648 l 135 648 l 147 707 l 257 707 l 345 991 l 400 991 l 311 707 l 449 707 l 539 991 l 590 991 l 503 707 l 603 707 l 590 648 l 484 648 l 397 378 l 504 378 l 492 317 l 379 317 l 279 0 l 224 0 l 325 317 l 187 317 l 89 0 l 35 0 l 134 317 l 36 317 l 49 378 m 343 378 l 431 648 l 292 648 l 207 378 l 343 378 z "},"$":{"ha":500,"x_min":36,"x_max":566,"o":"m 151 701 q 208 858 151 798 q 366 929 264 918 l 393 1055 l 449 1055 l 422 932 q 566 893 504 930 l 533 832 q 408 871 466 869 l 338 539 q 414 463 394 493 q 463 304 463 397 q 405 154 463 212 q 241 85 348 96 l 207 -81 l 151 -81 l 186 83 q 36 119 83 86 l 36 189 q 199 146 91 149 l 275 504 q 197 573 219 546 q 151 701 151 629 m 216 705 q 234 640 216 670 q 290 576 251 609 l 353 867 q 216 705 216 848 m 399 304 q 322 467 399 401 l 256 149 q 362 198 325 158 q 399 304 399 238 z "},"%":{"ha":737,"x_min":103,"x_max":724,"o":"m 404 869 q 373 637 404 758 q 292 450 341 517 q 189 383 243 383 q 125 419 148 383 q 103 521 103 455 q 133 746 103 627 q 212 936 163 865 q 317 1006 261 1006 q 381 969 358 1006 q 404 869 404 933 m 189 0 l 129 0 l 631 991 l 688 991 l 189 0 m 307 953 q 242 888 275 953 q 182 707 208 823 q 157 515 157 591 q 199 440 157 440 q 268 506 234 440 q 325 684 301 572 q 349 868 349 795 q 307 953 349 953 m 724 472 q 692 241 724 360 q 612 54 661 121 q 509 -14 564 -14 q 445 23 467 -14 q 422 123 422 59 q 453 351 422 231 q 533 540 484 472 q 636 608 581 608 q 701 572 678 608 q 724 472 724 535 m 627 555 q 561 490 594 555 q 502 309 528 425 q 476 118 476 193 q 518 43 476 43 q 587 109 553 43 q 644 287 621 175 q 668 471 668 398 q 627 555 668 555 z "},"&":{"ha":509,"x_min":28,"x_max":519,"o":"m 178 -14 q 67 33 107 -14 q 28 160 28 80 q 77 363 28 272 q 237 539 125 454 q 210 721 210 637 q 253 930 210 854 q 375 1006 297 1006 q 444 974 418 1006 q 469 884 469 942 q 426 690 469 786 q 306 522 383 595 l 386 237 q 463 437 432 322 l 519 437 q 471 294 507 375 q 406 171 435 212 l 461 0 l 395 0 l 363 113 q 269 13 311 39 q 178 -14 228 -14 m 411 872 q 364 945 411 945 q 294 888 320 945 q 268 740 268 830 q 290 578 268 650 q 379 709 348 632 q 411 872 411 787 m 92 172 q 182 49 92 49 q 258 74 223 49 q 345 176 293 100 l 253 486 q 92 172 92 357 z "},"'":{"ha":237,"x_min":144,"x_max":279,"o":"m 186 633 l 144 633 l 200 991 l 279 991 l 186 633 z "},"(":{"ha":345,"x_min":69,"x_max":463,"o":"m 69 149 q 157 594 69 377 q 411 991 245 810 l 463 991 q 222 584 303 797 q 140 149 140 370 q 157 -49 140 50 q 204 -220 173 -149 l 153 -220 q 93 -54 116 -155 q 69 149 69 48 z "},")":{"ha":345,"x_min":-56,"x_max":338,"o":"m 338 624 q 251 181 338 397 q -4 -220 164 -35 l -56 -220 q 267 624 267 174 q 250 824 267 726 q 203 991 233 922 l 254 991 q 314 826 290 928 q 338 624 338 725 z "},"*":{"ha":456,"x_min":150,"x_max":504,"o":"m 353 892 l 504 908 l 504 838 l 358 852 l 437 694 l 372 673 l 325 835 l 229 692 l 174 729 l 289 861 l 150 886 l 170 953 l 313 897 l 315 1060 l 392 1048 l 353 892 z "},"+":{"ha":500,"x_min":89,"x_max":518,"o":"m 518 530 l 518 481 l 329 481 l 329 253 l 277 253 l 277 481 l 89 481 l 89 530 l 277 530 l 277 760 l 329 760 l 329 530 l 518 530 z "},",":{"ha":257,"x_min":-14,"x_max":196,"o":"m 191 139 l 196 123 q 31 -179 127 -22 l -14 -179 q 113 139 70 3 l 191 139 z "},"-":{"ha":315,"x_min":64,"x_max":329,"o":"m 79 410 l 329 410 l 314 340 l 64 340 l 79 410 z "},".":{"ha":257,"x_min":28,"x_max":137,"o":"m 28 36 q 48 106 28 78 q 98 134 67 134 q 127 119 117 134 q 137 82 137 105 q 118 15 137 41 q 71 -11 100 -11 q 41 2 53 -11 q 28 36 28 14 z "},"/":{"ha":435,"x_min":-22,"x_max":568,"o":"m 40 0 l -22 0 l 505 991 l 568 991 l 40 0 z "},":":{"ha":257,"x_min":47,"x_max":285,"o":"m 176 640 q 196 710 176 682 q 245 737 215 737 q 275 722 265 737 q 285 686 285 707 q 267 619 285 645 q 218 593 248 593 q 189 606 201 593 q 176 640 176 618 m 47 36 q 66 106 47 78 q 117 134 85 134 q 145 119 135 134 q 155 82 155 105 q 137 15 155 41 q 89 -11 118 -11 q 59 2 71 -11 q 47 36 47 14 z "},";":{"ha":257,"x_min":-71,"x_max":246,"o":"m 138 640 q 157 710 138 682 q 208 737 176 737 q 237 722 227 737 q 246 686 246 707 q 228 619 246 645 q 180 593 210 593 q 150 606 162 593 q 138 640 138 618 m 134 139 l 139 123 q -26 -179 72 -18 l -71 -179 q 56 139 14 2 l 134 139 z "},"<":{"ha":500,"x_min":52,"x_max":481,"o":"m 52 482 l 52 528 l 481 799 l 481 730 l 114 504 l 481 278 l 481 208 l 52 482 z "},"=":{"ha":500,"x_min":92,"x_max":521,"o":"m 521 607 l 92 607 l 92 663 l 521 663 l 521 607 m 521 315 l 92 315 l 92 371 l 521 371 l 521 315 z "},">":{"ha":500,"x_min":115,"x_max":545,"o":"m 482 490 l 115 717 l 115 785 l 545 514 l 545 468 l 115 195 l 115 264 l 482 490 z "},"?":{"ha":353,"x_min":49,"x_max":450,"o":"m 285 607 q 362 738 343 687 q 382 842 382 788 q 359 920 382 895 q 297 945 336 945 q 249 938 271 945 q 186 901 227 930 l 160 954 q 302 1006 232 1006 q 412 965 373 1006 q 450 852 450 924 q 438 763 450 804 q 403 682 425 722 q 317 559 381 643 q 231 439 252 476 q 161 249 176 345 l 111 249 l 118 283 q 237 543 146 419 l 285 607 m 49 36 q 67 106 49 78 q 118 134 86 134 q 146 119 136 134 q 157 82 157 105 q 138 15 157 41 q 90 -11 119 -11 q 61 2 73 -11 q 49 36 49 14 z "},"@":{"ha":753,"x_min":75,"x_max":771,"o":"m 302 -122 q 137 -39 199 -122 q 75 189 75 43 q 143 598 75 412 q 324 891 211 785 q 566 999 438 999 q 716 919 661 999 q 771 694 771 838 q 736 447 771 582 q 650 236 702 312 q 542 160 599 160 q 485 181 504 160 q 465 236 465 203 q 472 301 465 270 q 342 157 422 157 q 267 278 267 157 q 303 489 267 374 q 392 661 339 603 q 509 720 444 720 q 604 700 562 720 l 524 380 q 507 279 507 315 q 551 214 507 214 q 623 287 586 214 q 688 482 660 360 q 715 686 715 604 q 674 877 715 812 q 551 942 633 942 q 349 844 446 942 q 195 571 254 745 q 135 197 135 396 q 181 2 135 73 q 308 -68 228 -68 q 446 -32 387 -68 l 453 -85 q 302 -122 383 -122 m 492 665 q 412 612 451 665 q 348 465 373 555 q 323 295 323 374 q 363 216 323 216 q 419 272 392 216 q 479 452 446 327 l 534 660 q 492 665 517 665 z "},"A":{"ha":496,"x_min":-53,"x_max":441,"o":"m 376 359 l 168 359 l 18 0 l -53 0 l 358 996 l 441 996 l 441 0 l 376 0 l 376 359 m 376 427 l 376 677 l 380 918 q 343 808 370 882 q 192 427 315 734 l 376 427 z "},"B":{"ha":554,"x_min":45,"x_max":602,"o":"m 407 991 q 548 941 495 991 q 602 806 602 890 q 551 617 602 693 q 412 524 501 541 l 411 519 q 491 459 460 507 q 522 343 522 411 q 444 95 522 189 q 235 0 366 0 q 229 0 232 0 l 45 0 l 254 991 l 407 991 m 332 551 q 475 620 419 551 q 532 793 532 689 q 532 798 532 795 q 497 895 532 863 q 392 926 463 926 l 309 926 l 228 551 l 328 551 q 332 551 330 551 m 232 64 q 395 136 336 64 q 453 335 453 210 q 418 447 453 406 q 322 488 383 488 l 215 488 l 125 64 l 232 64 z "},"C":{"ha":493,"x_min":92,"x_max":642,"o":"m 501 942 q 335 855 412 942 q 208 614 257 768 q 158 318 158 460 q 194 113 158 177 q 310 49 229 49 q 427 75 361 49 l 427 11 q 300 -14 362 -14 q 92 304 92 -14 q 149 647 92 479 q 302 910 207 814 q 509 1007 398 1007 q 642 965 591 1007 l 600 907 q 501 942 560 942 z "},"D":{"ha":607,"x_min":45,"x_max":619,"o":"m 401 991 q 563 920 507 991 q 619 710 619 848 q 563 341 619 507 q 407 87 507 175 q 174 0 307 0 l 45 0 l 254 991 l 401 991 m 187 64 q 371 142 290 64 q 500 376 452 221 q 549 710 549 532 q 392 926 549 926 l 309 926 l 125 64 l 187 64 z "},"E":{"ha":481,"x_min":45,"x_max":578,"o":"m 45 0 l 254 991 l 578 991 l 564 926 l 309 926 l 229 551 l 469 551 l 456 488 l 215 488 l 125 64 l 380 64 l 368 0 l 45 0 z "},"F":{"ha":444,"x_min":45,"x_max":579,"o":"m 45 0 l 254 991 l 579 991 l 566 926 l 309 926 l 221 510 l 463 510 l 449 446 l 207 446 l 113 0 l 45 0 z "},"G":{"ha":656,"x_min":92,"x_max":722,"o":"m 339 -14 q 92 297 92 -14 q 126 561 92 422 q 220 803 161 700 q 518 1007 337 1007 q 722 943 634 1007 l 679 884 q 596 929 634 916 q 514 942 558 942 q 263 751 363 942 q 186 533 215 658 q 158 287 158 408 q 204 107 158 165 q 346 49 250 49 q 476 68 415 49 l 555 439 l 424 439 l 437 503 l 637 503 l 534 22 q 339 -14 441 -14 z "},"H":{"ha":627,"x_min":45,"x_max":686,"o":"m 410 0 l 513 486 l 214 486 l 111 0 l 45 0 l 254 991 l 321 991 l 228 553 l 526 553 l 619 991 l 686 991 l 476 0 l 410 0 z "},"I":{"ha":283,"x_min":45,"x_max":321,"o":"m 254 991 l 321 991 l 111 0 l 45 0 l 254 991 z "},"J":{"ha":244,"x_min":-154,"x_max":322,"o":"m -77 -250 q -154 -233 -125 -250 l -135 -171 q -74 -184 -106 -184 q -3 -148 -28 -184 q 40 -24 22 -111 l 256 991 l 322 991 l 104 -39 q 38 -199 81 -149 q -77 -250 -5 -250 z "},"K":{"ha":504,"x_min":45,"x_max":643,"o":"m 383 0 l 282 481 l 195 393 l 111 0 l 45 0 l 254 991 l 321 991 l 210 467 l 293 589 l 575 991 l 643 991 l 336 539 l 452 0 l 383 0 z "},"L":{"ha":433,"x_min":45,"x_max":368,"o":"m 254 991 l 321 991 l 125 64 l 368 64 l 355 0 l 45 0 l 254 991 z "},"M":{"ha":851,"x_min":45,"x_max":911,"o":"m 300 903 l 296 903 l 266 740 l 110 0 l 45 0 l 254 991 l 363 991 l 386 240 l 389 129 l 387 69 l 389 69 q 461 239 399 102 l 796 991 l 911 991 l 701 0 l 633 0 l 795 761 l 828 901 l 825 901 l 421 0 l 335 0 l 300 903 z "},"N":{"ha":665,"x_min":45,"x_max":725,"o":"m 433 0 l 297 889 l 292 889 q 261 711 283 812 l 111 0 l 45 0 l 254 991 l 343 991 l 473 113 l 478 113 l 488 171 l 511 298 l 659 991 l 725 991 l 515 0 l 433 0 z "},"O":{"ha":650,"x_min":92,"x_max":663,"o":"m 279 -14 q 92 257 92 -14 q 123 540 92 392 q 207 793 155 688 q 476 1006 313 1006 q 663 746 663 1006 q 609 369 663 555 q 468 85 555 184 q 279 -14 382 -14 m 158 256 q 285 50 158 50 q 402 104 347 50 q 500 260 458 159 q 570 498 543 362 q 596 746 596 633 q 469 942 596 942 q 255 743 342 942 q 185 507 213 646 q 158 256 158 368 z "},"P":{"ha":524,"x_min":45,"x_max":582,"o":"m 370 991 q 525 935 468 991 q 582 783 582 879 q 582 780 582 781 q 543 591 582 676 q 432 458 505 507 q 267 410 359 410 q 262 410 265 410 l 197 410 l 111 0 l 45 0 l 254 991 l 370 991 m 258 473 q 445 552 379 473 q 511 772 511 630 q 472 886 511 846 q 359 926 432 926 l 307 926 l 211 473 l 258 473 z "},"Q":{"ha":650,"x_min":92,"x_max":663,"o":"m 92 257 q 123 540 92 392 q 207 793 155 688 q 476 1006 313 1006 q 663 733 663 1006 q 622 414 663 576 q 515 145 581 252 q 367 5 448 40 l 444 -236 l 366 -236 l 300 -12 l 279 -14 q 92 257 92 -14 m 158 252 q 285 50 158 50 q 439 150 369 50 q 553 424 510 250 q 596 751 596 597 q 469 942 596 942 q 314 847 384 942 q 201 578 243 753 q 158 252 158 403 z "},"R":{"ha":539,"x_min":45,"x_max":581,"o":"m 376 991 q 526 936 472 991 q 581 782 581 880 q 581 778 581 780 q 554 627 581 699 q 479 505 528 555 q 371 446 431 456 l 453 0 l 380 0 l 301 433 l 203 433 l 111 0 l 45 0 l 254 991 l 376 991 m 286 494 q 452 568 393 494 q 511 777 511 642 q 472 888 511 849 q 359 926 433 926 l 307 926 l 215 494 l 286 494 z "},"S":{"ha":493,"x_min":7,"x_max":572,"o":"m 395 940 q 265 885 316 940 q 214 748 214 830 q 234 652 214 695 q 313 551 254 610 q 397 452 376 486 q 444 271 444 373 q 374 62 444 138 q 179 -14 304 -14 q 80 -2 127 -14 q 7 25 33 9 l 7 98 q 182 50 90 50 q 325 109 275 50 q 375 269 375 168 q 334 412 375 349 q 261 500 313 444 q 186 589 208 555 q 144 735 144 656 q 177 876 144 814 q 270 972 210 939 q 408 1006 329 1006 q 501 994 453 1006 q 572 965 549 981 l 536 901 q 401 940 474 940 q 395 940 399 940 z "},"T":{"ha":433,"x_min":129,"x_max":581,"o":"m 129 0 l 325 926 l 151 926 l 165 991 l 581 991 l 567 926 l 393 926 l 197 0 l 129 0 z "},"U":{"ha":618,"x_min":87,"x_max":686,"o":"m 261 -14 q 132 39 177 -14 q 87 187 87 92 q 100 298 87 239 l 249 991 l 315 991 l 165 290 q 153 187 153 238 q 269 50 153 50 q 396 112 347 50 q 473 310 445 173 l 619 991 l 686 991 l 541 311 q 437 62 503 138 q 261 -14 372 -14 z "},"V":{"ha":494,"x_min":157,"x_max":644,"o":"m 157 0 l 157 991 l 224 991 l 224 375 q 208 82 224 266 q 293 309 234 161 l 576 991 l 644 991 l 231 0 l 157 0 z "},"W":{"ha":861,"x_min":139,"x_max":1002,"o":"m 1002 991 l 603 0 l 521 0 l 553 742 l 564 904 l 510 743 l 221 0 l 139 0 l 157 991 l 225 991 l 207 309 q 195 75 202 166 l 212 125 l 279 306 l 543 991 l 616 991 l 595 334 q 578 75 588 172 q 664 309 636 240 l 933 991 l 1002 991 z "},"X":{"ha":441,"x_min":-39,"x_max":581,"o":"m 302 0 l 267 452 l 31 0 l -39 0 l 245 536 l 191 991 l 258 991 l 304 581 l 513 991 l 581 991 l 325 504 l 371 0 l 302 0 z "},"Y":{"ha":418,"x_min":122,"x_max":575,"o":"m 505 991 l 575 991 l 272 387 l 191 0 l 122 0 l 204 387 l 154 991 l 222 991 l 257 479 l 505 991 z "},"Z":{"ha":393,"x_min":-17,"x_max":517,"o":"m -17 0 l -4 60 l 431 926 l 182 926 l 196 991 l 517 991 l 504 930 l 62 64 l 328 64 l 315 0 l -17 0 z "},"[":{"ha":393,"x_min":17,"x_max":518,"o":"m 17 -220 l 275 991 l 518 991 l 504 930 l 326 930 l 94 -158 l 273 -158 l 260 -220 l 17 -220 z "},"\\":{"ha":435,"x_min":183,"x_max":358,"o":"m 358 0 l 293 0 l 183 991 l 248 991 l 358 0 z "},"]":{"ha":393,"x_min":-43,"x_max":457,"o":"m 147 -158 l 379 930 l 200 930 l 214 991 l 457 991 l 199 -220 l -43 -220 l -29 -158 l 147 -158 z "},"^":{"ha":500,"x_min":75,"x_max":532,"o":"m 386 914 l 147 514 l 75 514 l 368 991 l 424 991 l 532 514 l 469 514 l 386 914 z "},"_":{"ha":514,"x_min":-24,"x_max":505,"o":"m -24 -180 l -12 -125 l 505 -125 l 494 -180 l -24 -180 z "},"`":{"ha":688,"x_min":387,"x_max":530,"o":"m 530 842 l 504 842 q 434 946 471 881 q 387 1053 397 1010 l 387 1064 l 473 1064 q 530 854 491 958 l 530 842 z "},"a":{"ha":554,"x_min":81,"x_max":583,"o":"m 216 -14 q 81 178 81 -14 q 123 458 81 318 q 233 674 165 597 q 380 750 300 750 q 498 648 471 750 l 503 648 l 529 736 l 583 736 l 428 0 l 376 0 l 389 106 l 386 106 q 216 -14 309 -14 m 229 43 q 343 113 290 43 q 433 319 396 183 q 469 575 469 454 q 446 660 469 631 q 378 689 422 689 q 267 621 318 689 q 182 418 216 552 q 147 168 147 285 q 166 74 147 104 q 229 43 184 43 z "},"b":{"ha":545,"x_min":49,"x_max":551,"o":"m 415 750 q 551 558 551 750 q 509 276 551 415 q 398 62 466 138 q 252 -14 331 -14 q 174 14 205 -14 q 134 89 142 42 l 129 89 l 98 0 l 49 0 l 271 1055 l 335 1055 l 254 679 l 240 624 l 243 624 q 322 718 277 685 q 415 750 368 750 m 403 693 q 286 623 340 693 q 197 423 232 552 q 163 170 163 294 q 254 45 163 45 q 365 115 314 45 q 450 318 416 184 q 485 568 485 452 q 466 663 485 632 q 403 693 448 693 z "},"c":{"ha":399,"x_min":81,"x_max":484,"o":"m 243 -14 q 122 41 164 -14 q 81 197 81 95 q 123 477 81 345 q 234 680 166 610 q 386 750 301 750 q 484 728 444 750 l 457 669 q 380 689 421 689 q 266 623 317 689 q 180 436 214 557 q 147 196 147 315 q 256 45 147 45 q 353 72 299 45 l 353 14 q 243 -14 302 -14 z "},"d":{"ha":554,"x_min":81,"x_max":652,"o":"m 216 -14 q 81 178 81 -14 q 123 458 81 318 q 233 674 165 597 q 380 750 300 750 q 458 722 427 750 q 498 647 490 694 l 503 647 l 587 1055 l 652 1055 l 428 0 l 376 0 l 389 106 l 386 106 q 216 -14 309 -14 m 229 43 q 343 112 290 43 q 433 316 396 182 q 469 572 469 450 q 447 660 469 631 q 378 689 425 689 q 267 621 318 689 q 182 418 216 552 q 147 168 147 285 q 166 74 147 104 q 229 43 184 43 z "},"e":{"ha":490,"x_min":81,"x_max":504,"o":"m 396 18 q 255 -14 338 -14 q 126 43 172 -14 q 81 201 81 100 q 122 475 81 347 q 234 676 164 603 q 380 750 303 750 q 472 715 440 750 q 504 610 504 681 q 416 414 504 485 q 180 343 328 343 q 170 343 175 343 l 161 343 q 147 208 147 276 q 272 45 147 45 q 396 83 329 45 l 396 18 m 370 690 q 255 610 309 690 q 170 399 201 530 q 440 614 440 399 q 424 671 440 652 q 370 690 408 690 z "},"f":{"ha":277,"x_min":-136,"x_max":481,"o":"m -77 -334 q -136 -326 -110 -334 l -136 -264 q -79 -272 -111 -272 q -30 -254 -47 -272 q 3 -194 -12 -236 q 35 -68 18 -152 l 195 679 l 113 679 l 119 715 l 208 743 l 222 810 q 291 1010 256 959 q 406 1063 327 1061 q 481 1046 451 1063 l 453 986 q 395 1000 425 1000 q 348 983 365 1000 q 316 921 332 966 q 272 736 300 876 l 370 736 l 357 679 l 260 679 l 97 -72 q 53 -236 73 -183 q 3 -311 32 -288 q -77 -334 -26 -334 z "},"g":{"ha":453,"x_min":-50,"x_max":557,"o":"m 454 679 q 475 574 475 640 q 444 429 475 507 q 364 307 414 351 q 254 262 315 262 l 237 262 l 222 264 q 138 157 138 205 q 160 115 138 128 q 247 85 169 110 q 360 21 326 61 q 395 -87 395 -19 q 322 -266 395 -197 q 138 -334 250 -334 q -1 -288 48 -334 q -50 -166 -50 -243 q -6 -30 -50 -89 q 119 65 38 28 q 77 142 77 94 q 99 212 77 178 q 176 283 121 245 q 118 421 118 332 q 152 588 118 509 q 236 709 185 667 q 350 750 287 750 q 416 736 393 750 l 557 736 l 547 690 l 454 679 m 180 415 q 256 313 180 313 q 332 348 298 313 q 389 455 366 383 q 411 593 411 527 q 338 697 411 697 q 261 659 297 697 q 204 549 227 622 q 180 415 180 475 m 163 40 q 55 -36 98 19 q 11 -156 11 -91 q 44 -251 11 -220 q 143 -281 77 -281 q 280 -231 226 -281 q 335 -100 335 -180 q 224 24 335 -8 l 163 40 z "},"h":{"ha":532,"x_min":50,"x_max":529,"o":"m 465 610 q 397 686 465 686 q 278 618 326 686 q 200 404 230 549 l 114 0 l 50 0 l 273 1055 l 338 1055 l 271 747 l 243 633 l 245 633 q 410 750 309 750 q 498 717 467 750 q 529 623 529 684 q 519 541 529 586 l 406 0 l 342 0 l 458 553 q 465 610 465 579 z "},"i":{"ha":236,"x_min":46,"x_max":322,"o":"m 235 920 q 251 980 235 955 q 290 1004 267 1004 q 322 965 322 1004 q 307 901 322 926 q 268 876 292 876 q 235 920 235 876 m 46 0 l 203 736 l 267 736 l 110 0 l 46 0 z "},"j":{"ha":236,"x_min":-139,"x_max":322,"o":"m 235 920 q 251 980 235 955 q 290 1004 267 1004 q 322 965 322 1004 q 307 901 322 926 q 268 876 292 876 q 235 920 235 876 m -79 -334 q -139 -326 -113 -334 l -139 -264 q -82 -272 -114 -272 q -33 -254 -50 -272 q 0 -193 -16 -237 q 32 -68 15 -150 l 203 736 l 267 736 l 94 -72 q 50 -236 71 -184 q 0 -311 29 -288 q -79 -334 -29 -334 z "},"k":{"ha":433,"x_min":49,"x_max":528,"o":"m 220 412 l 275 484 l 458 736 l 528 736 l 319 444 l 385 0 l 318 0 l 261 389 l 175 294 l 113 0 l 49 0 l 273 1055 l 338 1055 l 216 501 q 186 372 212 475 l 187 372 l 220 412 z "},"l":{"ha":235,"x_min":49,"x_max":338,"o":"m 49 0 l 273 1055 l 338 1055 l 113 0 l 49 0 z "},"m":{"ha":794,"x_min":49,"x_max":790,"o":"m 728 608 q 664 686 728 686 q 565 638 609 686 q 505 510 522 590 l 399 0 l 335 0 l 449 542 q 457 608 457 582 q 389 686 457 686 q 276 621 321 686 q 199 404 231 556 l 113 0 l 49 0 l 204 736 l 258 736 l 241 633 l 244 633 q 406 750 306 750 q 519 648 507 750 q 593 725 555 701 q 683 750 631 750 q 762 716 734 750 q 790 615 790 682 q 781 533 790 578 l 668 0 l 604 0 l 721 551 q 728 608 728 581 z "},"n":{"ha":530,"x_min":49,"x_max":528,"o":"m 464 610 q 396 686 464 686 q 277 618 325 686 q 199 404 229 549 l 113 0 l 49 0 l 204 736 l 258 736 l 241 633 l 244 633 q 408 750 307 750 q 496 717 465 750 q 528 623 528 684 q 518 541 528 586 l 404 0 l 340 0 l 457 553 q 464 610 464 579 z "},"o":{"ha":529,"x_min":81,"x_max":532,"o":"m 231 -14 q 119 41 158 -14 q 81 193 81 95 q 105 402 81 291 q 169 589 130 513 q 379 750 251 750 q 491 694 451 750 q 532 539 532 638 q 507 334 532 441 q 442 148 483 228 q 231 -14 358 -14 m 147 182 q 239 45 147 45 q 350 114 299 45 q 433 308 401 183 q 465 550 465 433 q 371 689 465 689 q 264 623 314 689 q 181 430 214 557 q 147 182 147 302 z "},"p":{"ha":545,"x_min":-18,"x_max":553,"o":"m 416 750 q 553 558 553 750 q 510 277 553 416 q 400 62 467 138 q 253 -14 333 -14 q 175 14 207 -14 q 135 89 143 42 l 131 89 l 46 -319 l -18 -319 l 205 736 l 261 736 l 244 631 l 248 631 q 416 750 325 750 m 404 693 q 287 623 341 693 q 199 423 233 552 q 164 170 164 294 q 256 45 164 45 q 367 115 315 45 q 452 318 418 184 q 486 568 486 452 q 468 663 486 632 q 404 693 449 693 z "},"q":{"ha":554,"x_min":81,"x_max":583,"o":"m 216 -14 q 81 178 81 -14 q 123 458 81 318 q 233 674 165 597 q 380 750 300 750 q 498 648 471 750 l 503 648 l 529 736 l 583 736 l 357 -334 l 293 -334 l 363 -3 l 392 107 l 389 107 q 216 -14 311 -14 m 229 43 q 343 113 290 43 q 433 319 396 183 q 469 575 469 454 q 446 660 469 631 q 378 689 422 689 q 267 621 318 689 q 182 418 216 552 q 147 168 147 285 q 166 74 147 104 q 229 43 184 43 z "},"r":{"ha":342,"x_min":49,"x_max":444,"o":"m 395 750 q 444 742 420 750 l 427 676 q 382 686 406 686 q 275 608 324 686 q 196 390 226 530 l 113 0 l 49 0 l 204 736 l 252 736 l 232 607 l 235 607 q 395 750 294 750 z "},"s":{"ha":403,"x_min":20,"x_max":461,"o":"m 427 650 q 316 689 379 689 q 218 654 254 689 q 182 561 182 619 q 197 488 182 521 q 256 407 212 455 q 317 331 300 359 q 355 201 355 273 q 303 42 355 98 q 155 -14 252 -14 q 78 -4 119 -14 q 20 17 37 5 l 20 92 q 75 61 36 75 q 151 47 113 47 q 254 86 217 47 q 290 195 290 124 q 263 295 290 249 q 209 362 253 315 q 151 433 165 410 q 118 553 118 486 q 172 695 118 641 q 316 750 227 750 q 461 708 405 750 l 427 650 z "},"t":{"ha":273,"x_min":65,"x_max":357,"o":"m 151 -14 q 65 89 65 -14 q 74 157 65 117 l 184 679 l 118 679 l 126 717 l 196 736 l 250 911 l 297 911 l 260 736 l 357 736 l 345 679 l 248 679 l 140 175 q 131 101 131 130 q 142 59 131 73 q 176 46 153 46 q 222 54 199 46 l 222 0 q 151 -14 184 -14 z "},"u":{"ha":533,"x_min":83,"x_max":561,"o":"m 146 132 q 210 49 146 49 q 411 332 351 49 l 497 736 l 561 736 l 404 0 l 354 0 l 359 92 l 357 92 q 195 -14 288 -14 q 83 121 83 -14 q 97 233 83 173 l 204 736 l 268 736 l 158 224 q 146 132 146 171 z "},"v":{"ha":399,"x_min":121,"x_max":509,"o":"m 121 736 l 184 736 l 184 289 q 181 193 184 271 q 174 83 178 115 l 178 83 q 209 171 192 125 q 441 736 227 216 l 509 736 l 197 0 l 121 0 l 121 736 z "},"w":{"ha":686,"x_min":115,"x_max":790,"o":"m 432 498 l 440 653 l 404 546 q 195 0 397 528 l 115 0 l 129 736 l 193 736 l 184 307 q 170 83 181 184 l 172 83 q 192 143 177 102 q 419 736 207 184 l 493 736 l 482 307 q 472 130 480 247 l 469 83 l 472 83 l 725 736 l 790 736 l 494 0 l 412 0 l 432 498 z "},"x":{"ha":412,"x_min":-18,"x_max":500,"o":"m 150 736 l 215 736 l 262 441 l 432 736 l 500 736 l 278 371 l 351 0 l 286 0 l 232 313 l 50 0 l -18 0 l 212 387 l 150 736 z "},"y":{"ha":399,"x_min":-107,"x_max":510,"o":"m -46 -334 q -107 -321 -79 -334 l -107 -262 q -47 -273 -83 -273 q 15 -243 -11 -273 q 79 -126 43 -213 l 122 -11 l 122 736 l 186 736 l 186 302 q 178 83 186 193 l 182 83 q 248 262 214 181 l 443 736 l 510 736 l 129 -165 q 50 -297 89 -260 q -46 -334 11 -334 z "},"z":{"ha":330,"x_min":-3,"x_max":410,"o":"m -3 0 l 7 52 l 329 679 l 150 679 l 163 736 l 410 736 l 399 684 l 75 57 l 277 57 l 264 0 l -3 0 z "},"{":{"ha":450,"x_min":85,"x_max":568,"o":"m 275 268 q 268 208 275 248 l 222 -5 q 215 -64 215 -45 q 239 -140 215 -115 q 318 -165 264 -164 l 318 -220 q 192 -179 232 -217 q 151 -68 151 -142 q 160 -3 151 -36 l 205 216 q 211 264 211 239 q 85 363 211 363 l 96 410 q 218 446 175 410 q 278 555 262 482 l 332 807 q 407 948 352 905 q 568 991 461 991 l 555 937 q 444 905 479 936 q 395 803 409 873 l 343 564 q 287 445 327 488 q 174 387 246 402 l 174 385 q 251 345 226 373 q 275 268 275 316 z "},"|":{"ha":500,"x_min":90,"x_max":447,"o":"m 90 -334 l 385 1055 l 447 1055 l 153 -334 l 90 -334 z "},"}":{"ha":450,"x_min":-40,"x_max":443,"o":"m 253 504 q 260 564 253 532 l 306 778 q 313 836 313 810 q 288 911 313 887 q 210 937 264 936 l 210 991 q 336 952 296 989 q 376 840 376 914 q 368 775 376 811 l 322 555 q 317 509 317 532 q 443 410 317 410 l 432 363 q 310 327 353 363 q 250 216 267 291 l 196 -35 q 120 -176 176 -134 q -40 -220 66 -220 l -28 -165 q 83 -134 47 -165 q 134 -31 118 -104 l 184 208 q 241 328 201 285 q 354 385 281 370 l 354 387 q 277 427 302 399 q 253 504 253 456 z "},"~":{"ha":500,"x_min":75,"x_max":534,"o":"m 408 424 q 294 461 353 424 q 280 469 292 463 q 265 478 269 476 q 251 485 261 479 q 236 492 241 490 q 222 496 231 494 q 191 501 207 501 q 75 419 142 501 l 75 486 q 203 558 133 558 q 332 512 256 558 q 421 482 382 482 q 534 561 473 482 l 534 494 q 408 424 478 424 z "},"¡":{"ha":323,"x_min":36,"x_max":330,"o":"m 330 690 q 312 621 330 648 q 261 593 293 593 q 233 607 243 593 q 222 644 222 621 q 241 711 222 686 q 289 737 260 737 q 318 725 307 737 q 330 690 330 712 m 257 478 l 119 -265 l 36 -265 l 215 478 l 257 478 z "},"¢":{"ha":500,"x_min":131,"x_max":533,"o":"m 131 330 q 166 590 131 465 q 261 793 202 715 q 396 888 321 870 l 421 1006 l 478 1006 l 454 890 q 533 869 502 886 l 507 811 q 431 831 471 831 q 316 763 367 831 q 231 572 264 696 q 197 332 197 449 q 222 221 197 256 q 297 186 247 186 q 387 212 336 186 l 403 155 q 292 127 362 131 l 261 -14 l 204 -14 l 236 135 q 131 330 131 165 z "},"£":{"ha":500,"x_min":5,"x_max":602,"o":"m 461 1006 q 534 994 503 1006 q 602 950 566 981 l 558 897 q 458 945 515 945 q 369 901 401 945 q 317 760 337 857 l 267 521 l 418 521 l 406 463 l 254 463 l 212 268 q 104 64 181 117 l 414 64 l 400 0 l 5 0 l 18 56 q 95 129 62 75 q 146 267 128 184 l 187 463 l 92 463 l 104 521 l 200 521 l 256 782 q 329 949 279 892 q 461 1006 378 1006 z "},"¥":{"ha":500,"x_min":71,"x_max":590,"o":"m 218 991 l 281 991 l 297 486 l 526 991 l 590 991 l 335 444 l 457 444 l 444 389 l 309 389 l 281 253 l 415 253 l 404 197 l 269 197 l 227 0 l 161 0 l 203 197 l 71 197 l 82 253 l 214 253 l 241 389 l 111 389 l 123 444 l 243 444 l 218 991 z "},"§":{"ha":427,"x_min":18,"x_max":517,"o":"m 163 122 q 264 162 222 122 q 306 265 306 202 q 299 310 306 290 q 280 345 292 330 q 229 389 267 360 q 128 481 154 444 q 103 564 103 519 q 236 741 103 680 q 176 872 176 796 q 233 1002 176 949 q 375 1055 289 1055 q 517 1013 461 1055 l 484 962 q 373 1002 432 1002 q 276 966 314 1002 q 239 876 239 930 q 255 812 239 840 q 328 744 271 785 q 410 667 385 704 q 435 587 435 629 q 407 480 435 526 q 317 396 379 434 q 371 275 371 342 q 371 271 371 273 q 311 124 371 182 q 167 66 251 66 q 163 66 165 66 q 78 76 118 66 q 18 100 39 85 l 18 168 q 83 135 43 147 q 163 122 123 122 m 165 572 q 193 501 165 533 q 283 431 220 469 q 370 576 370 486 q 353 638 370 612 q 296 692 336 664 l 275 707 q 165 572 165 665 z "},"¨":{"ha":688,"x_min":307,"x_max":579,"o":"m 307 924 q 323 979 307 957 q 363 1000 338 1000 q 395 962 395 1000 q 380 902 395 924 q 340 880 366 880 q 307 924 307 880 m 492 924 q 507 979 492 957 q 547 1000 523 1000 q 579 962 579 1000 q 565 902 579 924 q 525 880 550 880 q 492 924 492 880 z "},"©":{"ha":1156,"x_min":118,"x_max":1137,"o":"m 628 -14 q 558 -14 628 -14 q 369 56 488 -14 q 184 243 250 126 q 118 496 118 361 q 186 750 118 631 q 373 938 254 869 q 627 1006 492 1006 q 881 939 763 1006 q 1068 751 1000 871 q 1137 496 1137 632 q 1070 243 1137 361 q 886 56 1004 125 q 628 -14 768 -14 m 404 883 q 353 853 404 883 q 241 720 301 823 q 180 495 180 616 q 243 269 180 373 q 408 106 305 164 q 629 49 510 49 q 851 109 749 49 q 1015 272 954 169 q 1075 494 1075 375 q 1017 716 1075 613 q 854 881 958 819 q 629 943 750 943 q 404 883 507 943 m 659 741 q 508 676 562 741 q 453 497 453 612 q 653 250 453 250 q 787 279 711 250 l 787 220 q 646 189 718 189 q 450 268 519 189 q 382 489 382 347 q 457 717 382 632 q 659 802 532 802 q 812 766 740 802 l 787 710 q 659 741 721 741 z "},"ª":{"ha":346,"x_min":97,"x_max":401,"o":"m 286 611 q 236 561 261 576 q 177 546 210 546 q 120 572 144 546 q 97 640 97 598 q 140 755 97 712 q 264 807 184 799 l 330 814 l 340 861 q 346 909 346 884 q 333 945 346 934 q 292 956 321 956 q 226 937 264 956 l 210 929 l 196 974 q 311 1003 253 1003 q 401 922 401 1003 q 393 863 401 898 l 328 554 l 289 554 l 290 611 l 286 611 m 153 644 q 199 593 153 593 q 267 629 236 593 q 311 725 298 665 l 321 770 l 281 765 q 153 644 153 751 z "},"«":{"ha":522,"x_min":86,"x_max":564,"o":"m 354 587 l 167 357 l 252 119 l 208 100 l 86 349 l 89 367 l 315 615 l 354 587 m 564 587 l 378 357 l 461 119 l 419 100 l 296 349 l 298 367 l 526 615 l 564 587 z "},"¬":{"ha":500,"x_min":71,"x_max":500,"o":"m 500 214 l 450 214 l 450 471 l 71 471 l 71 526 l 500 526 l 500 214 z "},"®":{"ha":1156,"x_min":118,"x_max":1137,"o":"m 628 -14 q 558 -14 628 -14 q 369 56 488 -14 q 184 243 250 126 q 118 496 118 361 q 186 750 118 631 q 373 938 254 869 q 627 1006 492 1006 q 881 939 763 1006 q 1068 751 1000 871 q 1137 496 1137 632 q 1070 243 1137 361 q 886 56 1004 125 q 628 -14 768 -14 m 404 883 q 353 853 404 883 q 241 720 301 823 q 180 495 180 616 q 243 269 180 373 q 408 106 305 164 q 629 49 510 49 q 851 109 749 49 q 1015 272 954 169 q 1075 494 1075 375 q 1017 716 1075 613 q 854 881 958 819 q 629 943 750 943 q 404 883 507 943 m 463 794 l 606 794 q 757 751 704 794 q 810 623 810 709 q 783 528 810 569 q 708 464 757 486 l 869 197 l 787 197 l 644 441 l 530 441 l 530 197 l 463 197 l 463 794 m 530 496 l 607 496 q 704 528 669 496 q 739 619 739 559 q 606 736 739 736 l 530 736 l 530 496 z "},"¯":{"ha":514,"x_min":154,"x_max":690,"o":"m 154 1055 l 167 1111 l 690 1111 l 677 1055 l 154 1055 z "},"°":{"ha":518,"x_min":163,"x_max":568,"o":"m 510 948 q 539 919 510 948 q 568 803 568 890 q 510 658 568 716 q 365 600 452 600 q 220 656 278 600 q 163 802 163 712 q 221 949 163 892 q 366 1006 280 1006 q 510 948 452 1006 m 468 695 q 490 716 468 695 q 511 803 511 738 q 469 911 511 868 q 365 954 426 954 q 261 910 303 954 q 220 803 220 867 q 262 695 220 739 q 365 652 305 652 q 468 695 425 652 z "},"±":{"ha":500,"x_min":28,"x_max":457,"o":"m 457 467 l 457 416 l 267 416 l 267 179 l 216 179 l 216 416 l 28 416 l 28 467 l 216 467 l 216 704 l 267 704 l 267 467 l 457 467 m 457 50 l 457 0 l 28 0 l 28 50 l 457 50 z "},"´":{"ha":688,"x_min":339,"x_max":585,"o":"m 339 842 l 339 852 q 490 1064 443 977 l 585 1064 l 585 1053 q 491 945 555 1009 q 374 842 426 881 l 339 842 z "},"¶":{"ha":590,"x_min":153,"x_max":644,"o":"m 245 367 q 178 409 204 367 q 153 519 153 451 q 197 790 153 661 q 313 987 241 919 q 472 1055 385 1055 l 644 1055 l 383 -176 l 323 -176 l 571 990 l 485 990 l 237 -176 l 178 -176 l 294 375 q 245 367 279 367 z "},"·":{"ha":257,"x_min":126,"x_max":235,"o":"m 126 465 q 145 535 126 507 q 196 562 165 562 q 225 547 216 562 q 235 511 235 532 q 216 444 235 470 q 168 418 198 418 q 138 431 151 418 q 126 465 126 444 z "},"¸":{"ha":283,"x_min":-18,"x_max":224,"o":"m 224 -180 q 178 -291 224 -248 q 56 -334 132 -334 q 13 -331 37 -334 q -18 -326 -10 -329 l -18 -273 q 52 -281 0 -281 q 134 -256 104 -281 q 164 -189 164 -232 q 140 -138 164 -158 q 61 -109 115 -119 l 131 0 l 186 0 l 132 -78 q 200 -117 176 -90 q 224 -180 224 -144 z "},"º":{"ha":378,"x_min":111,"x_max":432,"o":"m 314 1003 q 342 1003 314 1003 q 401 969 370 1003 q 432 862 432 935 q 404 709 432 789 q 331 588 375 629 q 231 546 287 546 q 143 581 175 546 q 111 677 111 615 q 139 841 111 761 q 213 962 168 922 q 314 1003 258 1003 m 372 868 q 357 935 372 913 q 307 956 342 956 q 240 920 271 956 q 190 815 210 884 q 171 689 171 746 q 185 611 171 633 q 235 590 199 590 q 302 624 271 590 q 353 726 334 657 q 372 868 372 795 z "},"»":{"ha":522,"x_min":33,"x_max":511,"o":"m 33 127 l 220 358 l 136 596 l 178 615 l 301 367 l 298 349 l 71 100 l 33 127 m 243 127 l 431 358 l 346 596 l 389 615 l 511 367 l 509 349 l 282 100 l 243 127 z "},"¿":{"ha":353,"x_min":-20,"x_max":382,"o":"m 382 690 q 362 621 382 648 q 313 593 343 593 q 283 608 293 593 q 273 644 273 623 q 292 711 273 686 q 340 737 310 737 q 370 725 358 737 q 382 690 382 712 m 69 -5 q 49 -115 49 -61 q 129 -218 49 -218 q 177 -211 155 -218 q 240 -175 199 -204 l 267 -228 q 124 -279 195 -279 q 17 -239 54 -279 q -20 -126 -20 -199 q -7 -36 -20 -77 q 28 45 5 5 q 118 172 54 90 q 202 290 177 247 q 269 478 254 380 l 317 478 q 295 382 304 412 q 233 248 279 326 q 143 119 217 220 q 69 -5 91 51 z "},"À":{"ha":496,"x_min":-53,"x_max":460,"o":"m 460 1071 l 434 1071 q 364 1175 401 1110 q 317 1282 328 1240 l 317 1293 l 404 1293 q 460 1084 420 1187 l 460 1071 m 441 996 l 441 0 l 376 0 l 376 359 l 168 359 l 18 0 l -53 0 l 358 996 l 441 996 m 376 427 l 376 677 l 380 918 q 343 808 370 882 q 192 427 315 734 l 376 427 z "},"Á":{"ha":496,"x_min":-53,"x_max":598,"o":"m 353 1071 l 353 1082 q 504 1293 456 1206 l 598 1293 l 598 1282 q 504 1174 569 1238 q 387 1071 439 1110 l 353 1071 m 441 996 l 441 0 l 376 0 l 376 359 l 168 359 l 18 0 l -53 0 l 358 996 l 441 996 m 376 427 l 376 677 l 380 918 q 343 808 370 882 q 192 427 315 734 l 376 427 z "},"Â":{"ha":496,"x_min":-53,"x_max":552,"o":"m 549 1071 l 517 1071 q 433 1208 473 1139 q 284 1071 341 1117 l 254 1071 l 256 1084 q 418 1293 363 1204 l 477 1293 q 509 1191 484 1261 q 552 1084 536 1118 l 549 1071 m 441 996 l 441 0 l 376 0 l 376 359 l 168 359 l 18 0 l -53 0 l 358 996 l 441 996 m 376 427 l 376 677 l 380 918 q 343 808 370 882 q 192 427 315 734 l 376 427 z "},"Ã":{"ha":496,"x_min":-53,"x_max":608,"o":"m 500 1078 q 457 1092 479 1078 q 418 1122 434 1105 q 348 1166 374 1166 q 307 1144 322 1166 q 279 1076 292 1122 l 231 1076 q 353 1232 271 1232 q 397 1218 375 1232 q 434 1188 419 1204 q 498 1143 475 1143 q 532 1158 522 1143 q 560 1235 545 1174 l 608 1235 q 564 1111 589 1145 q 500 1078 538 1078 m 441 996 l 441 0 l 376 0 l 376 359 l 168 359 l 18 0 l -53 0 l 358 996 l 441 996 m 376 427 l 376 677 l 380 918 q 343 808 370 882 q 192 427 315 734 l 376 427 z "},"Ä":{"ha":496,"x_min":-53,"x_max":559,"o":"m 287 1153 q 302 1208 287 1186 q 342 1230 318 1230 q 374 1192 374 1230 q 360 1132 374 1154 q 320 1109 345 1109 q 287 1153 287 1109 m 471 1153 q 487 1208 471 1186 q 527 1230 503 1230 q 559 1192 559 1230 q 544 1132 559 1154 q 505 1109 530 1109 q 471 1153 471 1109 m 441 996 l 441 0 l 376 0 l 376 359 l 168 359 l 18 0 l -53 0 l 358 996 l 441 996 m 376 427 l 376 677 l 380 918 q 343 808 370 882 q 192 427 315 734 l 376 427 z "},"Å":{"ha":496,"x_min":-53,"x_max":530,"o":"m 271 1081 q 306 1173 271 1139 q 399 1207 340 1207 q 494 1173 458 1207 q 530 1087 530 1138 q 506 1003 530 1036 q 441 959 483 970 l 441 0 l 376 0 l 376 359 l 168 359 l 18 0 l -53 0 l 345 964 q 291 1008 310 977 q 271 1081 271 1038 m 401 1000 q 459 1022 437 1000 q 481 1081 481 1044 q 460 1140 481 1117 q 401 1163 438 1163 q 342 1140 363 1163 q 320 1081 320 1117 q 401 1000 320 1000 m 376 427 l 376 677 l 380 918 q 343 808 370 882 q 192 427 315 734 l 376 427 z "},"Æ":{"ha":703,"x_min":-52,"x_max":800,"o":"m 267 0 l 343 359 l 183 359 l 17 0 l -52 0 l 412 991 l 800 991 l 786 926 l 530 926 l 452 551 l 693 551 l 679 488 l 437 488 l 347 64 l 603 64 l 590 0 l 267 0 m 357 427 l 463 925 l 443 925 l 212 427 l 357 427 z "},"Ç":{"ha":493,"x_min":92,"x_max":642,"o":"m 92 304 q 149 647 92 479 q 302 910 207 814 q 509 1007 398 1007 q 642 965 591 1007 l 600 907 q 501 942 560 942 q 335 855 412 942 q 208 614 257 768 q 158 318 158 460 q 194 113 158 177 q 310 49 229 49 q 427 75 361 49 l 427 11 q 305 -14 366 -13 l 261 -78 q 329 -117 304 -90 q 353 -180 353 -144 q 307 -291 353 -248 q 184 -334 260 -334 q 142 -331 165 -334 q 111 -326 119 -329 l 111 -273 q 181 -281 129 -281 q 263 -256 233 -281 q 293 -189 293 -232 q 269 -138 293 -158 q 190 -109 244 -119 l 254 -9 q 92 304 92 23 z "},"È":{"ha":481,"x_min":45,"x_max":578,"o":"m 465 1071 l 438 1071 q 368 1175 405 1110 q 321 1282 332 1240 l 321 1293 l 408 1293 q 465 1084 425 1187 l 465 1071 m 254 991 l 578 991 l 564 926 l 309 926 l 229 551 l 469 551 l 456 488 l 215 488 l 125 64 l 380 64 l 368 0 l 45 0 l 254 991 z "},"É":{"ha":481,"x_min":45,"x_max":607,"o":"m 361 1071 l 361 1082 q 513 1293 465 1206 l 607 1293 l 607 1282 q 513 1174 578 1238 q 396 1071 448 1110 l 361 1071 m 254 991 l 578 991 l 564 926 l 309 926 l 229 551 l 469 551 l 456 488 l 215 488 l 125 64 l 380 64 l 368 0 l 45 0 l 254 991 z "},"Ê":{"ha":481,"x_min":45,"x_max":578,"o":"m 570 1071 l 538 1071 q 454 1208 494 1139 q 305 1071 362 1117 l 275 1071 l 277 1084 q 439 1293 384 1204 l 498 1293 q 530 1191 505 1261 q 573 1084 557 1118 l 570 1071 m 254 991 l 578 991 l 564 926 l 309 926 l 229 551 l 469 551 l 456 488 l 215 488 l 125 64 l 380 64 l 368 0 l 45 0 l 254 991 z "},"Ë":{"ha":481,"x_min":45,"x_max":578,"o":"m 305 1153 q 321 1208 305 1186 q 361 1230 336 1230 q 393 1192 393 1230 q 378 1132 393 1154 q 338 1109 363 1109 q 305 1153 305 1109 m 490 1153 q 505 1208 490 1186 q 545 1230 521 1230 q 577 1192 577 1230 q 563 1132 577 1154 q 523 1109 548 1109 q 490 1153 490 1109 m 254 991 l 578 991 l 564 926 l 309 926 l 229 551 l 469 551 l 456 488 l 215 488 l 125 64 l 380 64 l 368 0 l 45 0 l 254 991 z "},"Ì":{"ha":283,"x_min":45,"x_max":321,"o":"m 316 1071 l 290 1071 q 220 1175 256 1110 q 173 1282 183 1240 l 173 1293 l 259 1293 q 316 1084 277 1187 l 316 1071 m 321 991 l 111 0 l 45 0 l 254 991 l 321 991 z "},"Í":{"ha":283,"x_min":45,"x_max":516,"o":"m 271 1071 l 271 1082 q 422 1293 374 1206 l 516 1293 l 516 1282 q 422 1174 487 1238 q 305 1071 357 1110 l 271 1071 m 321 991 l 111 0 l 45 0 l 254 991 l 321 991 z "},"Î":{"ha":283,"x_min":45,"x_max":444,"o":"m 441 1071 l 409 1071 q 324 1208 364 1139 q 176 1071 233 1117 l 145 1071 l 148 1084 q 310 1293 254 1204 l 368 1293 q 400 1191 375 1261 q 444 1084 428 1118 l 441 1071 m 321 991 l 111 0 l 45 0 l 254 991 l 321 991 z "},"Ï":{"ha":283,"x_min":45,"x_max":445,"o":"m 173 1153 q 189 1208 173 1186 q 229 1230 204 1230 q 260 1192 260 1230 q 246 1132 260 1154 q 206 1109 231 1109 q 173 1153 173 1109 m 357 1153 q 373 1208 357 1186 q 413 1230 389 1230 q 445 1192 445 1230 q 430 1132 445 1154 q 391 1109 416 1109 q 357 1153 357 1109 m 321 991 l 111 0 l 45 0 l 254 991 l 321 991 z "},"Ñ":{"ha":665,"x_min":45,"x_max":725,"o":"m 589 1078 q 545 1092 568 1078 q 506 1122 522 1105 q 436 1166 463 1166 q 395 1144 410 1166 q 367 1076 380 1122 l 319 1076 q 441 1232 359 1232 q 485 1218 463 1232 q 522 1188 507 1204 q 587 1143 564 1143 q 621 1158 610 1143 q 648 1235 633 1174 l 696 1235 q 652 1111 677 1145 q 589 1078 627 1078 m 297 889 l 292 889 q 261 711 283 812 l 111 0 l 45 0 l 254 991 l 343 991 l 473 113 l 478 113 l 488 171 l 511 298 l 659 991 l 725 991 l 515 0 l 433 0 l 297 889 z "},"Ò":{"ha":650,"x_min":92,"x_max":663,"o":"m 543 1071 l 516 1071 q 446 1175 483 1110 q 399 1282 410 1240 l 399 1293 l 486 1293 q 543 1084 503 1187 l 543 1071 m 279 -14 q 92 257 92 -14 q 123 540 92 392 q 207 793 155 688 q 476 1006 313 1006 q 663 746 663 1006 q 609 369 663 555 q 468 85 555 184 q 279 -14 382 -14 m 158 256 q 285 50 158 50 q 402 104 347 50 q 500 260 458 159 q 570 498 543 362 q 596 746 596 633 q 469 942 596 942 q 255 743 342 942 q 185 507 213 646 q 158 256 158 368 z "},"Ó":{"ha":650,"x_min":92,"x_max":694,"o":"m 449 1071 l 449 1082 q 600 1293 553 1206 l 694 1293 l 694 1282 q 601 1174 665 1238 q 484 1071 536 1110 l 449 1071 m 279 -14 q 92 257 92 -14 q 123 540 92 392 q 207 793 155 688 q 476 1006 313 1006 q 663 746 663 1006 q 609 369 663 555 q 468 85 555 184 q 279 -14 382 -14 m 158 256 q 285 50 158 50 q 402 104 347 50 q 500 260 458 159 q 570 498 543 362 q 596 746 596 633 q 469 942 596 942 q 255 743 342 942 q 185 507 213 646 q 158 256 158 368 z "},"Ô":{"ha":650,"x_min":92,"x_max":663,"o":"m 627 1071 l 595 1071 q 510 1208 550 1139 q 361 1071 418 1117 l 331 1071 l 334 1084 q 496 1293 440 1204 l 554 1293 q 586 1191 561 1261 q 629 1084 614 1118 l 627 1071 m 279 -14 q 92 257 92 -14 q 123 540 92 392 q 207 793 155 688 q 476 1006 313 1006 q 663 746 663 1006 q 609 369 663 555 q 468 85 555 184 q 279 -14 382 -14 m 158 256 q 285 50 158 50 q 402 104 347 50 q 500 260 458 159 q 570 498 543 362 q 596 746 596 633 q 469 942 596 942 q 255 743 342 942 q 185 507 213 646 q 158 256 158 368 z "},"Õ":{"ha":650,"x_min":92,"x_max":682,"o":"m 574 1078 q 531 1092 553 1078 q 492 1122 508 1105 q 422 1166 448 1166 q 381 1144 396 1166 q 353 1076 366 1122 l 305 1076 q 427 1232 345 1232 q 471 1218 449 1232 q 509 1188 494 1204 q 572 1143 549 1143 q 606 1158 595 1143 q 634 1235 619 1174 l 682 1235 q 637 1111 662 1145 q 574 1078 612 1078 m 279 -14 q 92 257 92 -14 q 123 540 92 392 q 207 793 155 688 q 476 1006 313 1006 q 663 746 663 1006 q 609 369 663 555 q 468 85 555 184 q 279 -14 382 -14 m 158 256 q 285 50 158 50 q 402 104 347 50 q 500 260 458 159 q 570 498 543 362 q 596 746 596 633 q 469 942 596 942 q 255 743 342 942 q 185 507 213 646 q 158 256 158 368 z "},"Ö":{"ha":650,"x_min":92,"x_max":663,"o":"m 371 1153 q 387 1208 371 1186 q 427 1230 402 1230 q 458 1192 458 1230 q 444 1132 458 1154 q 404 1109 429 1109 q 371 1153 371 1109 m 555 1153 q 571 1208 555 1186 q 611 1230 587 1230 q 643 1192 643 1230 q 628 1132 643 1154 q 589 1109 614 1109 q 555 1153 555 1109 m 279 -14 q 92 257 92 -14 q 123 540 92 392 q 207 793 155 688 q 476 1006 313 1006 q 663 746 663 1006 q 609 369 663 555 q 468 85 555 184 q 279 -14 382 -14 m 158 256 q 285 50 158 50 q 402 104 347 50 q 500 260 458 159 q 570 498 543 362 q 596 746 596 633 q 469 942 596 942 q 255 743 342 942 q 185 507 213 646 q 158 256 158 368 z "},"Ø":{"ha":650,"x_min":16,"x_max":743,"o":"m 663 746 q 609 369 663 555 q 468 85 555 184 q 284 -14 382 -14 q 138 56 186 -14 l 62 -64 l 16 -36 l 110 115 q 92 257 92 171 q 123 540 92 392 q 207 793 155 688 q 476 1006 313 1006 q 621 932 575 1006 l 694 1048 l 743 1018 l 648 868 q 663 746 663 814 m 469 942 q 255 743 342 942 q 185 507 213 646 q 158 256 158 368 q 161 197 158 216 l 578 863 q 469 942 547 942 m 285 50 q 402 104 347 50 q 500 260 458 159 q 570 498 543 362 q 596 746 596 633 l 595 782 l 179 122 q 285 50 210 50 z "},"Ù":{"ha":618,"x_min":87,"x_max":686,"o":"m 513 1071 l 486 1071 q 416 1175 453 1110 q 370 1282 380 1240 l 370 1293 l 456 1293 q 513 1084 473 1187 l 513 1071 m 261 -14 q 132 39 177 -14 q 87 187 87 92 q 100 298 87 239 l 249 991 l 315 991 l 165 290 q 153 187 153 238 q 269 50 153 50 q 396 112 347 50 q 473 310 445 173 l 619 991 l 686 991 l 541 311 q 437 62 503 138 q 261 -14 372 -14 z "},"Ú":{"ha":618,"x_min":87,"x_max":686,"o":"m 408 1071 l 408 1082 q 559 1293 512 1206 l 654 1293 l 654 1282 q 560 1174 625 1238 q 443 1071 495 1110 l 408 1071 m 261 -14 q 132 39 177 -14 q 87 187 87 92 q 100 298 87 239 l 249 991 l 315 991 l 165 290 q 153 187 153 238 q 269 50 153 50 q 396 112 347 50 q 473 310 445 173 l 619 991 l 686 991 l 541 311 q 437 62 503 138 q 261 -14 372 -14 z "},"Û":{"ha":618,"x_min":87,"x_max":686,"o":"m 623 1071 l 591 1071 q 506 1208 546 1139 q 357 1071 414 1117 l 327 1071 l 330 1084 q 492 1293 436 1204 l 550 1293 q 582 1191 557 1261 q 625 1084 610 1118 l 623 1071 m 261 -14 q 132 39 177 -14 q 87 187 87 92 q 100 298 87 239 l 249 991 l 315 991 l 165 290 q 153 187 153 238 q 269 50 153 50 q 396 112 347 50 q 473 310 445 173 l 619 991 l 686 991 l 541 311 q 437 62 503 138 q 261 -14 372 -14 z "},"Ü":{"ha":618,"x_min":87,"x_max":686,"o":"m 357 1153 q 373 1208 357 1186 q 413 1230 389 1230 q 445 1192 445 1230 q 430 1132 445 1154 q 391 1109 416 1109 q 357 1153 357 1109 m 542 1153 q 557 1208 542 1186 q 597 1230 573 1230 q 629 1192 629 1230 q 615 1132 629 1154 q 575 1109 600 1109 q 542 1153 542 1109 m 261 -14 q 132 39 177 -14 q 87 187 87 92 q 100 298 87 239 l 249 991 l 315 991 l 165 290 q 153 187 153 238 q 269 50 153 50 q 396 112 347 50 q 473 310 445 173 l 619 991 l 686 991 l 541 311 q 437 62 503 138 q 261 -14 372 -14 z "},"ß":{"ha":503,"x_min":-149,"x_max":551,"o":"m 422 1063 q 517 1024 482 1063 q 551 927 551 985 q 530 822 551 869 q 454 710 509 774 q 385 611 399 645 q 370 545 370 577 q 409 418 370 500 q 467 216 467 299 q 411 50 467 114 q 264 -14 355 -14 q 155 17 193 -14 l 155 85 q 268 47 207 47 q 365 91 328 47 q 401 205 401 134 q 367 355 401 276 l 346 401 q 304 535 304 484 q 323 629 304 587 q 382 715 342 671 q 463 822 439 777 q 486 913 486 866 q 467 980 486 960 q 411 999 447 999 q 278 823 314 999 l 85 -72 q 39 -237 60 -186 q -11 -311 18 -289 q -81 -334 -39 -334 q -149 -326 -122 -334 l -149 -264 q -92 -272 -124 -272 q -42 -254 -60 -272 q -10 -193 -25 -237 q 22 -68 5 -150 l 211 817 q 289 1002 237 941 q 422 1063 340 1063 z "},"à":{"ha":554,"x_min":81,"x_max":583,"o":"m 424 842 l 397 842 q 328 946 364 881 q 281 1053 291 1010 l 281 1064 l 367 1064 q 424 854 384 958 l 424 842 m 216 -14 q 81 178 81 -14 q 123 458 81 318 q 233 674 165 597 q 380 750 300 750 q 498 648 471 750 l 503 648 l 529 736 l 583 736 l 428 0 l 376 0 l 389 106 l 386 106 q 216 -14 309 -14 m 229 43 q 343 113 290 43 q 433 319 396 183 q 469 575 469 454 q 446 660 469 631 q 378 689 422 689 q 267 621 318 689 q 182 418 216 552 q 147 168 147 285 q 166 74 147 104 q 229 43 184 43 z "},"á":{"ha":554,"x_min":81,"x_max":583,"o":"m 317 842 l 317 852 q 469 1064 421 977 l 563 1064 l 563 1053 q 469 945 534 1009 q 352 842 404 881 l 317 842 m 216 -14 q 81 178 81 -14 q 123 458 81 318 q 233 674 165 597 q 380 750 300 750 q 498 648 471 750 l 503 648 l 529 736 l 583 736 l 428 0 l 376 0 l 389 106 l 386 106 q 216 -14 309 -14 m 229 43 q 343 113 290 43 q 433 319 396 183 q 469 575 469 454 q 446 660 469 631 q 378 689 422 689 q 267 621 318 689 q 182 418 216 552 q 147 168 147 285 q 166 74 147 104 q 229 43 184 43 z "},"â":{"ha":554,"x_min":81,"x_max":583,"o":"m 536 843 l 504 843 q 419 981 459 911 q 271 843 328 889 l 240 843 l 243 856 q 405 1065 349 977 l 463 1065 q 495 963 470 1034 q 538 856 523 890 l 536 843 m 216 -14 q 81 178 81 -14 q 123 458 81 318 q 233 674 165 597 q 380 750 300 750 q 498 648 471 750 l 503 648 l 529 736 l 583 736 l 428 0 l 376 0 l 389 106 l 386 106 q 216 -14 309 -14 m 229 43 q 343 113 290 43 q 433 319 396 183 q 469 575 469 454 q 446 660 469 631 q 378 689 422 689 q 267 621 318 689 q 182 418 216 552 q 147 168 147 285 q 166 74 147 104 q 229 43 184 43 z "},"ã":{"ha":554,"x_min":81,"x_max":591,"o":"m 484 848 q 440 862 463 848 q 401 892 417 876 q 331 937 357 937 q 290 915 305 937 q 262 847 275 893 l 214 847 q 336 1003 254 1003 q 380 989 358 1003 q 418 959 403 975 q 481 914 458 914 q 515 929 505 914 q 543 1006 528 945 l 591 1006 q 546 882 571 916 q 484 848 522 848 m 216 -14 q 81 178 81 -14 q 123 458 81 318 q 233 674 165 597 q 380 750 300 750 q 498 648 471 750 l 503 648 l 529 736 l 583 736 l 428 0 l 376 0 l 389 106 l 386 106 q 216 -14 309 -14 m 229 43 q 343 113 290 43 q 433 319 396 183 q 469 575 469 454 q 446 660 469 631 q 378 689 422 689 q 267 621 318 689 q 182 418 216 552 q 147 168 147 285 q 166 74 147 104 q 229 43 184 43 z "},"ä":{"ha":554,"x_min":81,"x_max":583,"o":"m 280 924 q 296 979 280 957 q 336 1000 311 1000 q 368 962 368 1000 q 353 902 368 924 q 313 880 338 880 q 280 924 280 880 m 465 924 q 480 979 465 957 q 520 1000 496 1000 q 552 962 552 1000 q 537 902 552 924 q 498 880 523 880 q 465 924 465 880 m 216 -14 q 81 178 81 -14 q 123 458 81 318 q 233 674 165 597 q 380 750 300 750 q 498 648 471 750 l 503 648 l 529 736 l 583 736 l 428 0 l 376 0 l 389 106 l 386 106 q 216 -14 309 -14 m 229 43 q 343 113 290 43 q 433 319 396 183 q 469 575 469 454 q 446 660 469 631 q 378 689 422 689 q 267 621 318 689 q 182 418 216 552 q 147 168 147 285 q 166 74 147 104 q 229 43 184 43 z "},"å":{"ha":554,"x_min":81,"x_max":583,"o":"m 266 975 q 266 1004 266 975 q 300 1067 266 1033 q 394 1101 335 1101 q 489 1067 453 1101 q 524 975 524 1032 q 490 883 524 918 q 395 848 455 848 q 300 883 335 848 q 266 975 266 917 m 395 895 q 454 917 431 895 q 476 975 476 939 q 454 1034 476 1011 q 395 1057 433 1057 q 336 1034 358 1057 q 315 975 315 1011 q 395 895 315 895 m 216 -14 q 81 178 81 -14 q 123 458 81 318 q 233 674 165 597 q 380 750 300 750 q 498 648 471 750 l 503 648 l 529 736 l 583 736 l 428 0 l 376 0 l 389 106 l 386 106 q 216 -14 309 -14 m 229 43 q 343 113 290 43 q 433 319 396 183 q 469 575 469 454 q 446 660 469 631 q 378 689 422 689 q 267 621 318 689 q 182 418 216 552 q 147 168 147 285 q 166 74 147 104 q 229 43 184 43 z "},"æ":{"ha":808,"x_min":81,"x_max":822,"o":"m 216 -14 q 81 178 81 -14 q 123 458 81 318 q 233 674 165 597 q 380 750 300 750 q 447 726 422 750 q 485 646 471 702 l 511 736 l 566 736 l 543 640 q 699 750 617 750 q 790 715 758 750 q 822 610 822 681 q 734 414 822 485 q 498 343 646 343 q 488 343 493 343 l 479 343 q 465 208 465 276 q 593 45 465 45 q 718 82 654 45 l 718 24 q 588 -14 653 -14 q 483 19 522 -14 q 432 111 444 52 l 410 0 l 358 0 l 374 106 q 216 -14 313 -14 m 688 690 q 578 616 630 690 q 489 399 527 542 q 690 453 622 399 q 758 614 758 507 q 742 671 758 652 q 688 690 726 690 m 229 43 q 337 111 289 43 q 416 313 386 179 q 447 575 447 446 q 429 660 447 630 q 378 689 411 689 q 267 621 318 689 q 182 418 216 552 q 147 168 147 285 q 166 74 147 104 q 229 43 184 43 z "},"ç":{"ha":399,"x_min":48,"x_max":484,"o":"m 81 197 q 123 477 81 345 q 234 680 166 610 q 386 750 301 750 q 484 728 444 750 l 457 669 q 380 689 421 689 q 266 623 317 689 q 180 436 214 557 q 147 196 147 315 q 256 45 147 45 q 353 72 299 45 l 353 14 q 243 -14 302 -14 l 199 -78 q 266 -117 242 -90 q 290 -180 290 -144 q 244 -291 290 -248 q 122 -334 197 -334 q 80 -331 103 -334 q 48 -326 56 -329 l 48 -273 q 119 -281 66 -281 q 201 -256 171 -281 q 231 -189 231 -232 q 206 -138 231 -158 q 127 -109 182 -119 l 193 -7 q 110 61 138 9 q 81 197 81 113 z "},"è":{"ha":490,"x_min":81,"x_max":504,"o":"m 414 842 l 388 842 q 318 946 355 881 q 271 1053 281 1010 l 271 1064 l 357 1064 q 414 854 374 958 l 414 842 m 396 18 q 255 -14 338 -14 q 126 43 172 -14 q 81 201 81 100 q 122 475 81 347 q 234 676 164 603 q 380 750 303 750 q 472 715 440 750 q 504 610 504 681 q 416 414 504 485 q 180 343 328 343 q 170 343 175 343 l 161 343 q 147 208 147 276 q 272 45 147 45 q 396 83 329 45 l 396 18 m 370 690 q 255 610 309 690 q 170 399 201 530 q 440 614 440 399 q 424 671 440 652 q 370 690 408 690 z "},"é":{"ha":490,"x_min":81,"x_max":570,"o":"m 324 842 l 324 852 q 475 1064 428 977 l 570 1064 l 570 1053 q 476 945 541 1009 q 359 842 411 881 l 324 842 m 396 18 q 255 -14 338 -14 q 126 43 172 -14 q 81 201 81 100 q 122 475 81 347 q 234 676 164 603 q 380 750 303 750 q 472 715 440 750 q 504 610 504 681 q 416 414 504 485 q 180 343 328 343 q 170 343 175 343 l 161 343 q 147 208 147 276 q 272 45 147 45 q 396 83 329 45 l 396 18 m 370 690 q 255 610 309 690 q 170 399 201 530 q 440 614 440 399 q 424 671 440 652 q 370 690 408 690 z "},"ê":{"ha":490,"x_min":81,"x_max":540,"o":"m 537 842 l 505 842 q 420 979 460 909 q 272 842 329 888 l 241 842 l 244 854 q 406 1064 351 975 l 465 1064 q 496 962 471 1032 q 540 854 524 888 l 537 842 m 396 18 q 255 -14 338 -14 q 126 43 172 -14 q 81 201 81 100 q 122 475 81 347 q 234 676 164 603 q 380 750 303 750 q 472 715 440 750 q 504 610 504 681 q 416 414 504 485 q 180 343 328 343 q 170 343 175 343 l 161 343 q 147 208 147 276 q 272 45 147 45 q 396 83 329 45 l 396 18 m 370 690 q 255 610 309 690 q 170 399 201 530 q 440 614 440 399 q 424 671 440 652 q 370 690 408 690 z "},"ë":{"ha":490,"x_min":81,"x_max":552,"o":"m 280 924 q 296 979 280 957 q 336 1000 311 1000 q 368 962 368 1000 q 353 902 368 924 q 313 880 338 880 q 280 924 280 880 m 465 924 q 480 979 465 957 q 520 1000 496 1000 q 552 962 552 1000 q 537 902 552 924 q 498 880 523 880 q 465 924 465 880 m 396 18 q 255 -14 338 -14 q 126 43 172 -14 q 81 201 81 100 q 122 475 81 347 q 234 676 164 603 q 380 750 303 750 q 472 715 440 750 q 504 610 504 681 q 416 414 504 485 q 180 343 328 343 q 170 343 175 343 l 161 343 q 147 208 147 276 q 272 45 147 45 q 396 83 329 45 l 396 18 m 370 690 q 255 610 309 690 q 170 399 201 530 q 440 614 440 399 q 424 671 440 652 q 370 690 408 690 z "},"ì":{"ha":236,"x_min":46,"x_max":299,"o":"m 299 842 l 273 842 q 203 946 239 881 q 156 1053 166 1010 l 156 1064 l 242 1064 q 299 854 259 958 l 299 842 m 46 0 l 203 736 l 267 736 l 110 0 l 46 0 z "},"í":{"ha":236,"x_min":46,"x_max":448,"o":"m 202 842 l 202 852 q 353 1064 306 977 l 448 1064 l 448 1053 q 354 945 418 1009 q 237 842 289 881 l 202 842 m 203 736 l 267 736 l 110 0 l 46 0 l 203 736 z "},"î":{"ha":236,"x_min":46,"x_max":384,"o":"m 381 842 l 349 842 q 264 979 304 909 q 116 842 173 888 l 85 842 l 88 854 q 250 1064 195 975 l 309 1064 q 340 962 315 1032 q 384 854 368 888 l 381 842 m 203 736 l 267 736 l 110 0 l 46 0 l 203 736 z "},"ï":{"ha":236,"x_min":46,"x_max":395,"o":"m 123 924 q 139 979 123 957 q 179 1000 155 1000 q 211 962 211 1000 q 196 902 211 924 q 157 880 182 880 q 123 924 123 880 m 308 924 q 323 979 308 957 q 363 1000 339 1000 q 395 962 395 1000 q 381 902 395 924 q 341 880 366 880 q 308 924 308 880 m 203 736 l 267 736 l 110 0 l 46 0 l 203 736 z "},"ñ":{"ha":530,"x_min":49,"x_max":593,"o":"m 486 848 q 443 862 465 848 q 404 892 420 876 q 334 937 360 937 q 293 915 308 937 q 264 847 277 893 l 217 847 q 339 1003 257 1003 q 383 989 361 1003 q 420 959 406 975 q 484 914 460 914 q 518 929 507 914 q 546 1006 531 945 l 593 1006 q 549 882 574 916 q 486 848 524 848 m 464 610 q 396 686 464 686 q 277 618 325 686 q 199 404 229 549 l 113 0 l 49 0 l 204 736 l 258 736 l 241 633 l 244 633 q 408 750 307 750 q 496 717 465 750 q 528 623 528 684 q 518 541 528 586 l 404 0 l 340 0 l 457 553 q 464 610 464 579 z "},"ò":{"ha":529,"x_min":81,"x_max":532,"o":"m 428 842 l 401 842 q 332 946 368 881 q 285 1053 295 1010 l 285 1064 l 371 1064 q 428 854 388 958 l 428 842 m 231 -14 q 119 41 158 -14 q 81 193 81 95 q 105 402 81 291 q 169 589 130 513 q 379 750 251 750 q 491 694 451 750 q 532 539 532 638 q 507 334 532 441 q 442 148 483 228 q 231 -14 358 -14 m 147 182 q 239 45 147 45 q 350 114 299 45 q 433 308 401 183 q 465 550 465 433 q 371 689 465 689 q 264 623 314 689 q 181 430 214 557 q 147 182 147 302 z "},"ó":{"ha":529,"x_min":81,"x_max":577,"o":"m 332 842 l 332 852 q 483 1064 435 977 l 577 1064 l 577 1053 q 483 945 548 1009 q 366 842 418 881 l 332 842 m 231 -14 q 119 41 158 -14 q 81 193 81 95 q 105 402 81 291 q 169 589 130 513 q 379 750 251 750 q 491 694 451 750 q 532 539 532 638 q 507 334 532 441 q 442 148 483 228 q 231 -14 358 -14 m 147 182 q 239 45 147 45 q 350 114 299 45 q 433 308 401 183 q 465 550 465 433 q 371 689 465 689 q 264 623 314 689 q 181 430 214 557 q 147 182 147 302 z "},"ô":{"ha":529,"x_min":81,"x_max":540,"o":"m 537 842 l 505 842 q 420 979 460 909 q 272 842 329 888 l 241 842 l 244 854 q 406 1064 351 975 l 465 1064 q 496 962 471 1032 q 540 854 524 888 l 537 842 m 231 -14 q 119 41 158 -14 q 81 193 81 95 q 105 402 81 291 q 169 589 130 513 q 379 750 251 750 q 491 694 451 750 q 532 539 532 638 q 507 334 532 441 q 442 148 483 228 q 231 -14 358 -14 m 147 182 q 239 45 147 45 q 350 114 299 45 q 433 308 401 183 q 465 550 465 433 q 371 689 465 689 q 264 623 314 689 q 181 430 214 557 q 147 182 147 302 z "},"õ":{"ha":529,"x_min":81,"x_max":584,"o":"m 477 848 q 433 862 456 848 q 394 892 410 876 q 325 937 351 937 q 283 915 298 937 q 255 847 268 893 l 208 847 q 330 1003 248 1003 q 374 989 351 1003 q 411 959 396 975 q 474 914 451 914 q 509 929 498 914 q 536 1006 522 945 l 584 1006 q 539 882 564 916 q 477 848 515 848 m 231 -14 q 119 41 158 -14 q 81 193 81 95 q 105 402 81 291 q 169 589 130 513 q 379 750 251 750 q 491 694 451 750 q 532 539 532 638 q 507 334 532 441 q 442 148 483 228 q 231 -14 358 -14 m 147 182 q 239 45 147 45 q 350 114 299 45 q 433 308 401 183 q 465 550 465 433 q 371 689 465 689 q 264 623 314 689 q 181 430 214 557 q 147 182 147 302 z "},"ö":{"ha":529,"x_min":81,"x_max":549,"o":"m 277 924 q 293 979 277 957 q 333 1000 309 1000 q 365 962 365 1000 q 350 902 365 924 q 311 880 336 880 q 277 924 277 880 m 462 924 q 477 979 462 957 q 517 1000 493 1000 q 549 962 549 1000 q 535 902 549 924 q 495 880 520 880 q 462 924 462 880 m 231 -14 q 119 41 158 -14 q 81 193 81 95 q 105 402 81 291 q 169 589 130 513 q 379 750 251 750 q 491 694 451 750 q 532 539 532 638 q 507 334 532 441 q 442 148 483 228 q 231 -14 358 -14 m 147 182 q 239 45 147 45 q 350 114 299 45 q 433 308 401 183 q 465 550 465 433 q 371 689 465 689 q 264 623 314 689 q 181 430 214 557 q 147 182 147 302 z "},"÷":{"ha":500,"x_min":89,"x_max":518,"o":"m 302 637 q 256 703 256 637 q 303 768 256 768 q 350 703 350 768 q 337 654 350 670 q 302 637 323 637 m 518 465 l 89 465 l 89 515 l 518 515 l 518 465 m 256 277 q 302 342 256 342 q 337 326 323 342 q 350 277 350 310 q 337 227 350 243 q 302 211 323 211 q 268 227 281 211 q 256 277 256 243 z "},"ø":{"ha":529,"x_min":7,"x_max":612,"o":"m 532 536 q 507 334 532 441 q 442 148 483 228 q 231 -14 358 -14 q 125 33 163 -14 l 50 -79 l 7 -50 l 96 85 q 81 209 81 127 q 105 402 81 291 q 169 589 130 513 q 379 750 251 750 q 496 688 456 750 l 567 794 l 612 765 l 521 628 q 532 536 532 589 m 454 625 q 373 689 433 689 q 262 620 313 689 q 179 420 212 550 q 146 163 146 290 l 454 625 m 163 90 q 242 45 185 45 q 349 111 299 45 q 431 298 399 178 q 467 545 465 418 l 163 90 z "},"ù":{"ha":533,"x_min":83,"x_max":561,"o":"m 438 842 l 412 842 q 342 946 378 881 q 295 1053 305 1010 l 295 1064 l 381 1064 q 438 854 399 958 l 438 842 m 146 132 q 210 49 146 49 q 411 332 351 49 l 497 736 l 561 736 l 404 0 l 354 0 l 359 92 l 357 92 q 195 -14 288 -14 q 83 121 83 -14 q 97 233 83 173 l 204 736 l 268 736 l 158 224 q 146 132 146 171 z "},"ú":{"ha":533,"x_min":83,"x_max":576,"o":"m 330 842 l 330 852 q 481 1064 434 977 l 576 1064 l 576 1053 q 482 945 547 1009 q 365 842 417 881 l 330 842 m 146 132 q 210 49 146 49 q 411 332 351 49 l 497 736 l 561 736 l 404 0 l 354 0 l 359 92 l 357 92 q 195 -14 288 -14 q 83 121 83 -14 q 97 233 83 173 l 204 736 l 268 736 l 158 224 q 146 132 146 171 z "},"û":{"ha":533,"x_min":83,"x_max":561,"o":"m 541 842 l 509 842 q 425 979 465 909 q 276 842 333 888 l 245 842 l 248 854 q 410 1064 355 975 l 469 1064 q 500 962 475 1032 q 544 854 528 888 l 541 842 m 146 132 q 210 49 146 49 q 411 332 351 49 l 497 736 l 561 736 l 404 0 l 354 0 l 359 92 l 357 92 q 195 -14 288 -14 q 83 121 83 -14 q 97 233 83 173 l 204 736 l 268 736 l 158 224 q 146 132 146 171 z "},"ü":{"ha":533,"x_min":83,"x_max":561,"o":"m 271 924 q 286 979 271 957 q 326 1000 302 1000 q 358 962 358 1000 q 343 902 358 924 q 304 880 329 880 q 271 924 271 880 m 455 924 q 471 979 455 957 q 511 1000 486 1000 q 543 962 543 1000 q 528 902 543 924 q 488 880 513 880 q 455 924 455 880 m 146 132 q 210 49 146 49 q 411 332 351 49 l 497 736 l 561 736 l 404 0 l 354 0 l 359 92 l 357 92 q 195 -14 288 -14 q 83 121 83 -14 q 97 233 83 173 l 204 736 l 268 736 l 158 224 q 146 132 146 171 z "},"ÿ":{"ha":399,"x_min":-107,"x_max":510,"o":"m 205 924 q 220 979 205 957 q 260 1000 236 1000 q 292 962 292 1000 q 278 902 292 924 q 238 880 263 880 q 205 924 205 880 m 389 924 q 405 979 389 957 q 445 1000 420 1000 q 477 962 477 1000 q 462 902 477 924 q 422 880 448 880 q 389 924 389 880 m -46 -334 q -107 -321 -79 -334 l -107 -262 q -47 -273 -83 -273 q 15 -243 -11 -273 q 79 -126 43 -213 l 122 -11 l 122 736 l 186 736 l 186 302 q 178 83 186 193 l 182 83 q 248 262 214 181 l 443 736 l 510 736 l 129 -165 q 50 -297 89 -260 q -46 -334 11 -334 z "},"ı":{"ha":236,"x_min":46,"x_max":267,"o":"m 46 0 l 203 736 l 267 736 l 110 0 l 46 0 z "},"Œ":{"ha":749,"x_min":92,"x_max":846,"o":"m 92 268 q 143 623 92 444 q 281 899 194 803 q 479 996 369 996 l 607 991 l 846 991 l 832 926 l 576 926 l 497 551 l 737 551 l 724 488 l 484 488 l 393 64 l 648 64 l 636 0 l 400 0 l 297 -4 q 145 67 199 -4 q 92 268 92 138 m 468 932 q 349 881 404 932 q 252 736 294 829 q 184 512 211 642 q 158 268 158 381 q 198 106 158 154 q 325 58 237 58 l 509 930 l 488 932 l 468 932 z "},"œ":{"ha":832,"x_min":81,"x_max":848,"o":"m 600 -14 q 437 157 456 -14 q 231 -14 361 -14 q 119 41 158 -14 q 81 193 81 95 q 105 402 81 291 q 169 589 130 513 q 379 750 251 750 q 513 571 503 750 q 608 703 553 656 q 724 750 663 750 q 848 610 848 750 q 760 414 848 485 q 525 343 672 343 q 514 343 519 343 l 505 343 q 492 208 492 271 q 616 45 492 45 q 745 82 679 45 l 745 24 q 600 -14 680 -14 m 714 690 q 599 610 653 690 q 514 399 545 530 q 785 614 785 399 q 768 671 785 652 q 714 690 752 690 m 147 182 q 239 45 147 45 q 350 114 299 45 q 433 308 401 183 q 465 550 465 433 q 371 689 465 689 q 264 623 314 689 q 181 430 214 557 q 147 182 147 302 z "},"Ÿ":{"ha":418,"x_min":122,"x_max":575,"o":"m 252 1153 q 268 1208 252 1186 q 308 1230 283 1230 q 340 1192 340 1230 q 325 1132 340 1154 q 286 1109 311 1109 q 252 1153 252 1109 m 437 1153 q 452 1208 437 1186 q 492 1230 468 1230 q 524 1192 524 1230 q 510 1132 524 1154 q 470 1109 495 1109 q 437 1153 437 1109 m 575 991 l 272 387 l 191 0 l 122 0 l 204 387 l 154 991 l 222 991 l 257 479 l 505 991 l 575 991 z "},"ƒ":{"ha":500,"x_min":-41,"x_max":615,"o":"m 569 928 q 515 943 543 943 q 471 935 486 943 q 420 842 441 918 q 372 631 408 798 l 489 631 l 476 574 l 359 574 l 220 -79 q 147 -280 184 -228 q 32 -334 110 -332 q -41 -321 -5 -334 l -41 -258 q 37 -273 3 -273 q 108 -233 87 -271 q 158 -68 130 -195 l 294 574 l 199 574 l 205 610 l 309 637 l 334 753 q 405 952 367 899 q 524 1006 443 1004 q 600 987 567 1006 l 615 979 l 581 921 l 569 928 z "},"ˆ":{"ha":705,"x_min":281,"x_max":579,"o":"m 576 842 l 545 842 q 460 979 500 909 q 311 842 368 888 l 281 842 l 283 854 q 446 1064 390 975 l 504 1064 q 536 962 511 1032 q 579 854 564 888 l 576 842 z "},"ˇ":{"ha":705,"x_min":326,"x_max":625,"o":"m 329 1064 l 361 1064 q 446 926 384 1029 q 595 1064 540 1021 l 625 1064 l 623 1051 q 535 945 587 1013 q 460 842 482 878 l 401 842 q 369 943 394 873 q 326 1051 345 1012 l 329 1064 z "},"˘":{"ha":705,"x_min":330,"x_max":599,"o":"m 599 1003 q 452 842 567 842 q 361 873 392 842 q 330 964 330 905 q 334 1003 330 988 l 379 1003 l 378 993 l 378 982 q 398 922 378 941 q 453 903 418 903 q 511 926 488 903 q 551 1003 534 949 l 599 1003 z "},"˙":{"ha":235,"x_min":207,"x_max":294,"o":"m 207 920 q 223 980 207 955 q 262 1004 239 1004 q 294 965 294 1004 q 279 901 294 926 q 240 876 264 876 q 207 920 207 876 z "},"˚":{"ha":721,"x_min":330,"x_max":589,"o":"m 458 1101 q 487 1101 458 1101 q 553 1067 517 1101 q 589 975 589 1032 q 554 883 589 918 q 459 848 519 848 q 365 883 399 848 q 330 975 330 917 q 365 1067 330 1033 q 458 1101 399 1101 m 460 895 q 518 917 496 895 q 541 975 541 939 q 519 1034 541 1011 q 460 1057 497 1057 q 401 1034 422 1057 q 379 975 379 1011 q 460 895 379 895 z "},"˛":{"ha":233,"x_min":9,"x_max":193,"o":"m 77 -196 q 125 -250 77 -250 q 171 -243 144 -250 l 160 -292 q 95 -302 136 -302 q 32 -276 55 -302 q 9 -202 9 -250 q 39 -105 9 -155 q 143 0 68 -56 l 193 0 q 77 -196 77 -102 z "},"˜":{"ha":705,"x_min":262,"x_max":639,"o":"m 532 848 q 488 862 511 848 q 449 892 465 876 q 379 937 406 937 q 338 915 353 937 q 310 847 323 893 l 262 847 q 385 1003 302 1003 q 428 989 406 1003 q 465 959 450 975 q 530 914 507 914 q 564 929 553 914 q 591 1006 576 945 l 639 1006 q 595 882 620 916 q 532 848 570 848 z "},"˝":{"ha":708,"x_min":232,"x_max":664,"o":"m 232 842 l 235 854 q 383 1064 334 975 l 478 1064 l 476 1053 q 385 946 447 1008 q 267 842 322 884 l 232 842 m 418 842 l 421 854 q 570 1064 521 975 l 664 1064 l 663 1053 q 570 947 633 1009 q 453 842 508 884 l 418 842 z "},"ְ":{"ha":0,"x_min":-62,"x_max":65,"o":"m 31 -54 q 65 -87 65 -54 q 63 -106 65 -96 q 9 -156 52 -156 q -24 -125 -24 -156 q -22 -106 -24 -117 q 31 -54 -11 -54 m -7 -233 q 28 -265 28 -233 q 25 -284 28 -273 q -29 -335 14 -335 q -62 -303 -62 -335 q -60 -284 -62 -295 q -7 -233 -48 -233 z "},"ֱ":{"ha":0,"x_min":-210,"x_max":247,"o":"m -155 -54 q -121 -87 -121 -54 q -123 -106 -121 -96 q -176 -156 -134 -156 q -210 -125 -210 -156 q -207 -106 -210 -117 q -155 -54 -196 -54 m 40 -54 q 74 -87 74 -54 q 72 -106 74 -96 q 18 -156 60 -156 q -15 -125 -15 -156 q -12 -106 -15 -117 q 40 -54 -1 -54 m 212 -54 q 247 -87 247 -54 q 245 -106 247 -96 q 191 -156 233 -156 q 158 -125 158 -156 q 161 -106 158 -117 q 212 -54 172 -54 m -96 -233 q -61 -265 -61 -233 q -64 -284 -61 -273 q -118 -335 -75 -335 q -151 -304 -151 -335 q -149 -284 -151 -295 q -96 -233 -137 -233 m 174 -233 q 210 -265 210 -233 q 207 -284 210 -273 q 153 -335 195 -335 q 120 -304 120 -335 q 123 -284 120 -295 q 174 -233 134 -233 z "},"ֲ":{"ha":0,"x_min":-180,"x_max":215,"o":"m 180 -54 q 215 -87 215 -54 q 213 -106 215 -96 q 159 -156 201 -156 q 125 -125 125 -156 q 128 -106 125 -117 q 180 -54 139 -54 m 61 -129 l -180 -129 l -170 -81 l 71 -81 l 61 -129 m 142 -233 q 178 -265 178 -233 q 175 -284 178 -273 q 121 -335 163 -335 q 87 -304 87 -335 q 90 -284 87 -295 q 142 -233 102 -233 z "},"ֳ":{"ha":0,"x_min":-180,"x_max":215,"o":"m 180 -54 q 215 -87 215 -54 q 213 -106 215 -96 q 159 -156 201 -156 q 125 -125 125 -156 q 128 -106 125 -117 q 180 -54 139 -54 m 61 -129 l -35 -129 l -64 -266 l -113 -266 l -84 -129 l -180 -129 l -170 -81 l 71 -81 l 61 -129 m 142 -233 q 178 -265 178 -233 q 175 -284 178 -273 q 121 -335 163 -335 q 87 -304 87 -335 q 90 -284 87 -295 q 142 -233 102 -233 z "},"ִ":{"ha":0,"x_min":-44,"x_max":45,"o":"m 11 -54 q 45 -87 45 -54 q 43 -106 45 -96 q -11 -156 32 -156 q -44 -125 -44 -156 q -41 -106 -44 -117 q 11 -54 -31 -54 z "},"ֵ":{"ha":0,"x_min":-142,"x_max":142,"o":"m -87 -54 q -53 -87 -53 -54 q -55 -106 -53 -96 q -109 -156 -66 -156 q -142 -125 -142 -156 q -139 -106 -142 -117 q -87 -54 -128 -54 m 108 -54 q 142 -87 142 -54 q 140 -106 142 -96 q 86 -156 128 -156 q 53 -125 53 -156 q 56 -106 53 -117 q 108 -54 66 -54 z "},"ֶ":{"ha":0,"x_min":-121,"x_max":162,"o":"m -66 -54 q -33 -87 -33 -54 q -35 -106 -33 -96 q -88 -156 -46 -156 q -121 -125 -121 -156 q -119 -106 -121 -117 q -66 -54 -108 -54 m 128 -54 q 162 -87 162 -54 q 160 -106 162 -96 q 106 -156 149 -156 q 73 -125 73 -156 q 76 -106 73 -117 q 128 -54 87 -54 m -8 -233 q 27 -265 27 -233 q 24 -284 27 -273 q -30 -335 13 -335 q -63 -304 -63 -335 q -60 -284 -63 -295 q -8 -233 -49 -233 z "},"ַ":{"ha":0,"x_min":-126,"x_max":127,"o":"m 116 -124 l -126 -124 l -115 -75 l 127 -75 l 116 -124 z "},"ָ":{"ha":0,"x_min":-111,"x_max":141,"o":"m 131 -124 l 34 -124 l 5 -260 l -43 -260 l -14 -124 l -111 -124 l -101 -75 l 141 -75 l 131 -124 z "},"ֹ":{"ha":0,"x_min":-44,"x_max":45,"o":"m 11 1058 q 45 1025 45 1058 q 43 1006 45 1017 q -11 956 32 956 q -44 987 -44 956 q -41 1006 -44 996 q 11 1058 -31 1058 z "},"ֺ":{"ha":0,"x_min":-43,"x_max":45,"o":"m 11 1058 q 45 1025 45 1058 q 43 1006 45 1017 q -11 956 32 956 q -43 987 -43 956 q -41 1006 -43 996 q 11 1058 -30 1058 z "},"ֻ":{"ha":0,"x_min":-121,"x_max":125,"o":"m -66 -54 q -33 -87 -33 -54 q -35 -106 -33 -96 q -88 -156 -46 -156 q -121 -125 -121 -156 q -119 -106 -121 -117 q -66 -54 -108 -54 m 11 -143 q 46 -176 46 -143 q 43 -195 46 -184 q -11 -245 33 -245 q -44 -214 -44 -245 q -41 -195 -44 -205 q 11 -143 -30 -143 m 90 -233 q 125 -264 125 -233 q 122 -284 125 -273 q 68 -335 111 -335 q 35 -304 35 -335 q 38 -284 35 -295 q 90 -233 50 -233 z "},"ּ":{"ha":0,"x_min":-44,"x_max":45,"o":"m 11 505 q 45 472 45 505 q 43 454 45 464 q -11 404 32 404 q -44 435 -44 404 q -41 454 -44 443 q 11 505 -31 505 z "},"ֽ":{"ha":0,"x_min":-53,"x_max":52,"o":"m 7 -300 l -53 -300 l -8 -93 l 52 -93 l 7 -300 z "},"־":{"ha":350,"x_min":130,"x_max":423,"o":"m 408 805 l 130 805 l 145 874 l 423 874 l 408 805 z "},"ׁ":{"ha":0,"x_min":-44,"x_max":45,"o":"m 11 1058 q 45 1025 45 1058 q 43 1006 45 1017 q -11 956 32 956 q -44 987 -44 956 q -41 1006 -44 996 q 11 1058 -31 1058 z "},"ׂ":{"ha":0,"x_min":-45,"x_max":45,"o":"m 10 1058 q 45 1025 45 1058 q 43 1006 45 1017 q -12 956 31 956 q -45 987 -45 956 q -42 1006 -45 996 q 10 1058 -31 1058 z "},"ׇ":{"ha":0,"x_min":-96,"x_max":109,"o":"m 99 -87 l 26 -87 l 9 -167 l -39 -167 l -22 -87 l -96 -87 l -85 -39 l 109 -39 l 99 -87 z "},"א":{"ha":527,"x_min":-44,"x_max":562,"o":"m 562 875 l 495 557 q 429 385 472 446 q 385 337 412 360 q 324 298 357 313 l 384 0 l 314 0 l 211 523 q 131 443 161 494 q 83 307 100 391 l 18 0 l -44 0 l 21 307 q 72 456 38 387 q 125 529 92 496 q 200 580 157 561 l 142 875 l 211 875 l 313 358 q 388 431 361 385 q 433 558 416 477 l 500 875 l 562 875 z "},"ב":{"ha":507,"x_min":-27,"x_max":486,"o":"m 159 882 q 283 888 230 888 q 364 884 337 888 q 415 871 391 880 q 477 798 460 852 q 486 756 486 774 q 485 716 486 737 q 473 644 484 694 l 349 57 l 407 57 l 395 0 l -27 0 l -15 57 l 284 57 l 409 644 q 420 727 420 694 q 413 780 420 760 q 387 811 406 800 q 347 826 369 823 q 292 830 324 830 q 168 825 238 830 l 147 823 l 159 882 z "},"ג":{"ha":445,"x_min":-15,"x_max":411,"o":"m 283 888 q 411 764 411 888 q 402 691 411 732 l 255 0 l 201 0 l 224 144 l 220 144 q 164 58 186 83 q 26 -3 109 -3 q -15 5 6 -3 l 11 68 q 45 60 24 60 q 180 135 125 60 q 264 347 235 210 l 338 691 q 346 763 346 733 q 326 811 346 792 q 265 830 307 830 q 197 819 241 830 l 210 878 q 283 888 250 888 z "},"ד":{"ha":460,"x_min":92,"x_max":532,"o":"m 532 875 l 522 825 q 464 802 489 814 q 412 768 439 789 q 334 629 355 722 l 201 0 l 136 0 l 270 629 q 295 704 279 669 q 330 758 312 738 q 391 812 367 800 l 401 818 l 92 818 l 104 875 l 532 875 z "},"ה":{"ha":621,"x_min":4,"x_max":581,"o":"m 190 875 q 372 888 331 888 q 445 884 413 888 q 504 870 476 880 q 547 843 531 861 q 581 741 581 806 q 568 644 581 701 l 431 0 l 366 0 l 503 644 q 514 727 514 694 q 506 780 514 760 q 476 812 497 801 q 428 826 454 823 q 370 830 401 830 q 177 816 339 830 l 190 875 m 68 0 l 4 0 l 121 551 l 186 551 l 68 0 z "},"ו":{"ha":261,"x_min":5,"x_max":256,"o":"m 70 0 l 5 0 l 191 875 l 256 875 l 70 0 z "},"ז":{"ha":290,"x_min":26,"x_max":361,"o":"m 361 875 l 351 825 q 268 722 307 795 q 208 553 229 648 l 91 0 l 26 0 l 144 553 q 205 725 165 654 q 275 818 245 795 l 172 818 l 184 875 l 361 875 z "},"ח":{"ha":621,"x_min":4,"x_max":581,"o":"m 190 875 q 372 888 331 888 q 445 884 413 888 q 504 870 476 880 q 547 843 531 861 q 581 741 581 806 q 568 644 581 701 l 431 0 l 366 0 l 503 644 q 514 727 514 694 q 506 780 514 760 q 476 812 497 801 q 428 826 454 823 q 362 830 401 830 q 243 822 324 830 l 68 0 l 4 0 l 190 875 z "},"ט":{"ha":600,"x_min":36,"x_max":564,"o":"m 395 888 q 564 660 564 888 q 536 437 564 568 q 204 -14 440 -14 q 36 215 36 -14 q 64 437 36 307 l 157 875 l 222 875 l 130 437 q 102 233 102 307 q 116 121 102 160 q 217 47 142 47 q 272 58 246 47 q 326 96 298 68 q 378 165 354 123 q 469 437 431 262 q 497 643 497 570 q 483 754 497 715 q 445 810 469 792 q 386 829 420 829 q 319 823 351 830 l 332 883 q 395 888 364 888 z "},"י":{"ha":254,"x_min":69,"x_max":250,"o":"m 150 401 l 75 327 l 69 327 l 186 875 l 250 875 l 150 401 z "},"ך":{"ha":461,"x_min":102,"x_max":397,"o":"m 231 888 q 397 676 397 888 q 374 489 397 597 l 199 -334 l 134 -334 l 309 489 q 330 664 330 592 q 216 827 330 827 q 102 793 161 827 l 117 863 q 231 888 170 888 z "},"כ":{"ha":431,"x_min":-60,"x_max":399,"o":"m 232 888 q 399 676 399 888 q 376 489 399 597 l 349 361 q 183 31 298 117 q 41 -14 123 -14 q -60 5 -7 -14 l -47 67 q 52 45 -13 45 q 116 60 86 45 q 168 97 146 75 q 208 152 189 119 q 239 212 227 184 q 260 273 250 239 q 283 361 276 323 l 311 489 q 332 664 332 592 q 218 827 332 827 q 104 793 163 827 l 118 863 q 232 888 172 888 z "},"ל":{"ha":411,"x_min":62,"x_max":484,"o":"m 190 879 l 484 879 l 468 804 l 263 344 l 128 0 l 62 0 l 195 336 l 411 817 l 112 817 l 165 1064 l 229 1064 l 190 879 z "},"ם":{"ha":621,"x_min":4,"x_max":584,"o":"m 190 875 q 381 888 331 888 q 469 883 431 888 q 574 823 555 871 q 584 756 584 797 q 570 652 584 716 l 431 0 l 4 0 l 190 875 m 505 652 q 519 738 519 718 q 515 775 519 759 q 502 802 511 791 q 471 820 493 813 q 425 828 450 827 q 362 830 399 830 q 243 822 324 830 l 81 57 l 379 57 l 505 652 z "},"מ":{"ha":583,"x_min":-54,"x_max":541,"o":"m 233 783 l 237 783 q 267 819 248 800 q 306 852 286 838 q 358 877 326 865 q 427 888 390 888 q 489 874 463 888 q 526 837 514 861 q 541 768 541 809 q 536 691 541 727 q 519 599 532 655 l 393 0 l 178 0 l 190 57 l 340 57 l 455 599 q 465 648 461 629 q 473 691 469 667 q 478 731 477 715 q 477 764 478 747 q 472 792 477 782 q 460 812 467 803 q 412 830 446 830 q 345 815 377 830 q 290 777 313 800 q 227 697 245 732 l 218 682 l 11 0 l -54 0 l 153 682 q 167 762 167 726 q 159 844 167 797 l 155 875 l 223 875 q 233 783 233 831 z "},"ן":{"ha":271,"x_min":-54,"x_max":235,"o":"m 235 836 q 212 614 235 724 l 11 -334 l -54 -334 l 148 614 q 165 732 159 669 q 170 815 170 795 q 170 837 170 835 l 170 875 l 235 875 q 235 836 235 855 z "},"נ":{"ha":386,"x_min":-62,"x_max":358,"o":"m 231 888 q 358 764 358 888 q 349 691 358 732 l 250 223 q 222 121 240 177 q 190 33 203 66 l 176 0 l -62 0 l -50 57 l 132 57 q 186 223 169 143 l 285 691 q 293 763 293 733 q 274 811 293 792 q 213 830 254 830 q 144 819 191 830 l 157 878 q 231 888 196 888 z "},"ס":{"ha":600,"x_min":36,"x_max":564,"o":"m 395 888 q 564 660 564 888 q 536 437 564 568 q 204 -14 440 -14 q 36 215 36 -14 q 64 441 36 307 q 133 665 93 576 q 245 824 174 753 l 159 819 l 172 879 q 395 888 326 888 m 102 217 q 217 47 102 47 q 272 58 246 47 q 326 96 298 68 q 378 165 354 123 q 469 437 431 262 q 497 643 497 570 q 483 753 497 715 q 382 827 456 827 l 319 826 q 204 674 247 766 q 134 454 162 583 q 102 217 102 304 z "},"ע":{"ha":574,"x_min":-47,"x_max":649,"o":"m 649 875 l 528 492 q 449 262 475 324 q 287 51 385 114 q 133 -4 221 8 l -47 -33 l -35 24 l 140 53 l 162 57 l 151 875 l 216 875 l 222 479 l 222 78 q 323 163 283 108 q 398 301 367 223 q 465 492 427 372 l 584 875 l 649 875 z "},"ף":{"ha":618,"x_min":81,"x_max":549,"o":"m 235 299 q 127 335 165 299 q 81 469 81 378 q 93 583 81 519 q 201 803 121 718 q 382 888 280 888 q 549 661 549 888 q 522 437 549 568 l 357 -334 l 293 -334 l 457 437 q 484 650 484 564 q 368 827 484 827 q 289 804 327 827 q 225 742 252 780 q 153 583 170 665 q 140 484 140 523 q 148 414 140 445 q 182 367 157 384 q 250 350 208 350 l 260 350 l 238 299 l 235 299 z "},"פ":{"ha":587,"x_min":33,"x_max":551,"o":"m 237 299 q 129 335 168 299 q 84 434 90 371 q 83 486 83 451 q 94 583 83 520 q 202 803 123 718 q 383 888 281 888 q 551 660 551 888 q 524 437 551 568 q 387 99 475 211 q 180 -14 298 -14 q 52 -3 109 -14 l 33 0 l 46 60 q 193 47 113 47 q 265 65 231 47 q 334 125 299 83 q 401 247 370 168 q 456 437 433 326 q 485 643 485 570 q 471 753 485 715 q 370 827 444 827 q 291 804 329 827 q 227 742 254 780 q 154 583 173 668 q 141 464 141 517 q 169 381 141 412 q 252 350 197 350 l 262 350 l 240 299 l 237 299 z "},"ץ":{"ha":422,"x_min":-24,"x_max":477,"o":"m 477 875 l 413 575 q 346 416 395 490 q 276 347 319 377 q 180 302 233 316 l 45 -334 l -24 -334 l 126 373 l 96 875 l 165 875 l 195 368 q 293 446 254 397 q 349 576 332 494 l 412 875 l 477 875 z "},"צ":{"ha":512,"x_min":-53,"x_max":555,"o":"m 555 875 l 489 665 q 408 454 447 531 q 308 323 369 377 l 370 29 l 363 0 l -53 0 l -41 57 l 294 57 l 222 402 l 133 875 l 201 875 l 292 402 l 294 389 q 366 508 337 441 q 425 665 395 575 l 491 875 l 555 875 z "},"ק":{"ha":578,"x_min":-64,"x_max":623,"o":"m 612 818 l 406 402 q 379 346 399 387 q 347 282 359 306 q 317 219 335 258 q 286 154 298 180 q 262 98 274 127 q 231 12 235 37 l 228 0 l 165 0 l 168 12 q 334 387 184 86 q 338 394 336 390 q 342 402 340 399 l 547 818 l 180 818 l 192 875 l 623 875 l 612 818 m 1 -334 l -64 -334 l 117 515 l 181 515 l 1 -334 z "},"ר":{"ha":453,"x_min":96,"x_max":415,"o":"m 109 882 q 219 888 162 888 q 311 883 277 888 q 406 819 387 869 q 415 756 415 793 q 401 644 415 711 l 264 0 l 199 0 l 336 644 q 350 732 350 710 q 347 770 350 753 q 336 798 345 786 q 310 818 328 810 q 212 830 280 830 q 113 825 168 830 l 96 823 l 109 882 z "},"ש":{"ha":711,"x_min":31,"x_max":753,"o":"m 102 0 l 31 0 l 143 875 l 203 875 l 138 378 q 279 486 225 414 q 378 703 332 557 l 431 875 l 488 875 l 435 703 q 382 559 408 617 q 321 451 357 500 q 240 369 286 401 q 131 315 194 336 l 98 59 l 115 59 q 312 117 218 59 q 472 273 405 175 q 579 498 540 372 l 696 875 l 753 875 l 636 498 q 500 220 587 339 q 395 106 452 154 q 263 29 338 58 q 102 0 187 0 z "},"ת":{"ha":604,"x_min":-83,"x_max":560,"o":"m 135 873 q 336 888 269 888 q 432 884 404 888 q 486 871 460 880 q 552 798 533 852 q 560 741 560 774 q 548 644 560 700 l 411 0 l 347 0 l 484 644 q 494 726 494 692 q 486 780 494 760 q 457 811 477 800 q 414 826 437 823 q 362 830 390 830 q 243 825 335 830 l 98 138 q 50 32 81 63 q -31 0 19 0 q -83 5 -56 0 l -69 67 q -29 62 -41 62 q 33 138 17 62 l 178 819 l 122 814 l 135 873 z "},"׳":{"ha":214,"x_min":68,"x_max":277,"o":"m 272 875 l 277 860 q 112 557 216 728 l 68 557 q 197 875 151 736 l 272 875 z "},"״":{"ha":406,"x_min":83,"x_max":464,"o":"m 286 875 l 292 860 q 126 557 230 728 l 83 557 q 212 875 157 711 l 286 875 m 459 875 l 464 860 q 298 557 402 728 l 255 557 q 385 875 330 711 l 459 875 z "},"–":{"ha":625,"x_min":83,"x_max":619,"o":"m 94 403 l 619 403 l 608 347 l 83 347 l 94 403 z "},"—":{"ha":1250,"x_min":83,"x_max":1244,"o":"m 94 403 l 1244 403 l 1234 347 l 83 347 l 94 403 z "},"‘":{"ha":193,"x_min":100,"x_max":311,"o":"m 106 673 l 100 689 q 267 991 177 846 l 311 991 q 245 846 282 933 q 182 673 209 759 l 106 673 z "},"’":{"ha":193,"x_min":102,"x_max":311,"o":"m 306 991 l 311 977 q 146 673 250 844 l 102 673 q 231 991 184 852 l 306 991 z "},"‚":{"ha":257,"x_min":-14,"x_max":196,"o":"m 191 139 l 196 123 q 31 -179 127 -22 l -14 -179 q 113 139 70 3 l 191 139 z "},"“":{"ha":366,"x_min":109,"x_max":490,"o":"m 114 673 l 109 689 q 275 991 190 855 l 318 991 q 249 837 285 926 q 189 673 212 747 l 114 673 m 286 673 l 281 689 q 447 991 362 856 l 490 991 q 425 846 461 933 q 361 673 388 759 l 286 673 z "},"”":{"ha":366,"x_min":97,"x_max":478,"o":"m 300 991 l 306 977 q 140 673 244 844 l 97 673 q 227 991 172 827 l 300 991 m 473 991 l 478 977 q 313 673 416 844 l 269 673 q 399 991 344 827 l 473 991 z "},"„":{"ha":366,"x_min":-54,"x_max":326,"o":"m 149 139 l 154 123 q -11 -179 87 -18 l -54 -179 q 75 139 20 -25 l 149 139 m 322 139 l 326 123 q 161 -179 259 -18 l 118 -179 q 248 139 199 -5 l 322 139 z "},"†":{"ha":539,"x_min":170,"x_max":572,"o":"m 385 722 l 245 0 l 170 0 l 339 722 l 171 715 l 183 778 l 347 765 l 395 1055 l 471 1055 l 393 765 l 572 778 l 559 715 l 385 722 z "},"‡":{"ha":539,"x_min":71,"x_max":579,"o":"m 473 310 l 460 248 l 285 258 l 244 0 l 168 0 l 239 258 l 71 248 l 85 310 l 248 302 l 289 533 l 343 753 l 176 746 l 191 808 l 353 796 l 393 1055 l 469 1055 l 399 796 l 579 808 l 566 746 l 389 753 l 350 533 l 293 302 l 473 310 z "},"•":{"ha":469,"x_min":143,"x_max":437,"o":"m 291 343 q 256 343 291 343 q 182 386 220 343 q 143 508 143 428 q 181 629 143 588 q 290 671 219 671 q 399 629 361 671 q 437 508 437 588 q 399 386 437 428 q 291 343 361 343 z "},"…":{"ha":772,"x_min":79,"x_max":704,"o":"m 79 36 q 98 106 79 78 q 149 134 117 134 q 177 119 167 134 q 187 82 187 105 q 169 15 187 41 q 121 -11 150 -11 q 91 2 103 -11 q 79 36 79 14 m 338 36 q 356 106 338 78 q 407 134 375 134 q 435 119 425 134 q 446 82 446 105 q 427 15 446 41 q 379 -11 408 -11 q 350 2 361 -11 q 338 36 338 14 m 596 36 q 615 106 596 78 q 665 134 633 134 q 694 119 684 134 q 704 82 704 105 q 685 15 704 41 q 637 -11 667 -11 q 608 2 620 -11 q 596 36 596 14 z "},"‰":{"ha":1048,"x_min":104,"x_max":1046,"o":"m 403 868 q 373 645 403 764 q 295 454 343 526 q 196 383 247 383 q 104 521 104 383 q 134 747 104 627 q 209 936 163 866 q 310 1006 256 1006 q 378 969 353 1006 q 403 868 403 932 m 192 0 l 135 0 l 636 991 l 690 991 l 192 0 m 306 953 q 239 889 272 953 q 181 709 205 825 q 157 516 157 593 q 199 440 157 440 q 266 501 233 440 q 323 676 298 562 q 347 868 347 791 q 337 933 347 913 q 306 953 328 953 m 725 471 q 695 249 725 366 q 617 59 665 131 q 518 -14 568 -14 q 427 123 427 -14 q 456 351 427 233 q 531 539 486 470 q 632 608 578 608 q 700 572 675 608 q 725 471 725 535 m 1046 471 q 1016 249 1046 366 q 938 59 986 131 q 839 -14 890 -14 q 747 123 747 -14 q 778 355 747 234 q 855 542 808 476 q 953 608 901 608 q 1021 572 996 608 q 1046 471 1046 535 m 628 555 q 562 493 594 555 q 505 317 530 431 q 479 122 479 202 q 521 43 479 43 q 588 104 555 43 q 645 279 621 165 q 669 471 669 393 q 660 536 669 516 q 628 555 650 555 m 949 555 q 883 493 915 555 q 826 317 851 431 q 800 122 800 202 q 842 43 800 43 q 908 104 876 43 q 966 279 941 165 q 990 471 990 393 q 980 536 990 516 q 949 555 970 555 z "},"‹":{"ha":313,"x_min":86,"x_max":354,"o":"m 354 587 l 167 357 l 252 119 l 208 100 l 86 349 l 89 367 l 315 615 l 354 587 z "},"›":{"ha":313,"x_min":33,"x_max":301,"o":"m 33 127 l 221 358 l 136 596 l 179 615 l 301 367 l 298 349 l 72 100 l 33 127 z "},"⁄":{"ha":163,"x_min":-281,"x_max":546,"o":"m -215 0 l -281 0 l 481 991 l 546 991 l -215 0 z "},"₪":{"ha":767,"x_min":5,"x_max":765,"o":"m 287 875 q 485 844 429 875 q 548 770 534 817 q 555 710 555 745 q 545 633 555 676 l 449 179 l 385 179 l 481 633 q 488 694 488 667 q 483 741 488 721 q 463 774 477 760 q 432 797 449 788 q 389 810 415 805 q 275 818 344 818 l 243 818 l 70 0 l 5 0 l 191 875 l 287 875 m 243 0 l 163 0 l 311 696 l 375 696 l 239 57 l 255 57 q 461 118 386 57 q 572 301 530 173 q 608 439 591 358 l 701 875 l 765 875 l 672 439 q 616 250 649 328 q 534 114 584 172 q 243 0 436 0 z "},"€":{"ha":500,"x_min":29,"x_max":621,"o":"m 494 942 q 341 854 412 942 q 225 610 269 766 l 444 610 l 432 554 l 211 554 q 187 418 199 501 l 385 418 l 372 363 l 183 363 l 183 317 q 214 111 183 172 q 317 49 245 49 q 424 75 378 49 l 435 14 q 302 -14 382 -14 q 163 67 210 -14 q 117 304 117 149 l 118 363 l 29 363 l 41 418 l 122 418 q 143 554 129 489 l 69 554 l 82 610 l 157 610 q 298 900 206 793 q 498 1007 391 1007 q 621 965 576 1007 l 583 907 q 494 942 548 942 z "},"™":{"ha":935,"x_min":157,"x_max":945,"o":"m 289 553 l 289 945 l 157 945 l 157 991 l 475 991 l 475 945 l 342 945 l 342 553 l 289 553 m 571 553 l 521 553 l 521 991 l 597 991 l 732 623 l 869 991 l 945 991 l 945 553 l 893 553 l 893 794 l 895 921 l 892 921 l 753 553 l 707 553 l 572 924 l 570 924 l 571 802 l 571 553 z "},"∫":{"ha":517,"x_min":93,"x_max":498,"o":"m 328 -69 q 294 -272 328 -210 q 179 -334 260 -334 q 93 -317 131 -334 l 115 -257 q 180 -271 148 -271 q 245 -227 229 -270 q 264 -68 262 -184 l 264 821 q 298 1006 264 949 q 412 1063 332 1063 q 498 1046 460 1063 l 476 986 q 411 1000 445 1000 q 346 957 362 1000 q 328 798 329 914 l 328 -69 z "},"≠":{"ha":500,"x_min":83,"x_max":532,"o":"m 532 663 l 532 607 l 392 607 l 281 371 l 532 371 l 532 315 l 254 315 l 164 121 l 119 144 l 199 315 l 83 315 l 83 371 l 225 371 l 335 607 l 83 607 l 83 663 l 361 663 l 452 856 l 498 832 l 418 663 l 532 663 z "},"ﬁ":{"ha":513,"x_min":-136,"x_max":599,"o":"m -77 -334 q -136 -326 -110 -334 l -136 -264 q -79 -272 -111 -272 q -30 -254 -47 -272 q 3 -194 -12 -236 q 35 -68 18 -152 l 195 679 l 113 679 l 119 715 l 208 743 l 222 810 q 291 1010 256 959 q 406 1063 327 1061 q 481 1046 451 1063 l 453 986 q 395 1000 425 1000 q 348 983 365 1000 q 316 921 332 966 q 272 736 300 876 l 370 736 l 357 679 l 260 679 l 97 -72 q 53 -236 73 -183 q 3 -311 32 -288 q -77 -334 -26 -334 m 511 920 q 527 980 511 955 q 567 1004 543 1004 q 599 965 599 1004 q 584 901 599 926 q 545 876 569 876 q 511 920 511 876 m 323 0 l 479 736 l 543 736 l 387 0 l 323 0 z "},"ﬂ":{"ha":511,"x_min":-136,"x_max":614,"o":"m -77 -334 q -136 -326 -110 -334 l -136 -264 q -79 -272 -111 -272 q -30 -254 -47 -272 q 3 -194 -12 -236 q 35 -68 18 -152 l 195 679 l 113 679 l 119 715 l 208 743 l 222 810 q 291 1010 256 959 q 406 1063 327 1061 q 481 1046 451 1063 l 453 986 q 395 1000 425 1000 q 348 983 365 1000 q 316 921 332 966 q 272 736 300 876 l 370 736 l 357 679 l 260 679 l 97 -72 q 53 -236 73 -183 q 3 -311 32 -288 q -77 -334 -26 -334 m 550 1055 l 614 1055 l 389 0 l 326 0 l 550 1055 z "},"שׁ":{"ha":711,"x_min":31,"x_max":796,"o":"m 762 1058 q 796 1025 796 1058 q 794 1006 796 1017 q 740 956 783 956 q 707 987 707 956 q 709 1006 707 996 q 762 1058 720 1058 m 102 0 l 31 0 l 143 875 l 203 875 l 138 378 q 279 486 225 414 q 378 703 332 557 l 431 875 l 488 875 l 435 703 q 382 559 408 617 q 321 451 357 500 q 240 369 286 401 q 131 315 194 336 l 98 59 l 115 59 q 312 117 218 59 q 472 273 405 175 q 579 498 540 372 l 696 875 l 753 875 l 636 498 q 500 220 587 339 q 395 106 452 154 q 263 29 338 58 q 102 0 187 0 z "},"שׂ":{"ha":711,"x_min":31,"x_max":753,"o":"m 205 1058 q 239 1025 239 1058 q 237 1006 239 1017 q 183 956 226 956 q 150 987 150 956 q 153 1006 150 996 q 205 1058 163 1058 m 102 0 l 31 0 l 143 875 l 203 875 l 138 378 q 279 486 225 414 q 378 703 332 557 l 431 875 l 488 875 l 435 703 q 382 559 408 617 q 321 451 357 500 q 240 369 286 401 q 131 315 194 336 l 98 59 l 115 59 q 312 117 218 59 q 472 273 405 175 q 579 498 540 372 l 696 875 l 753 875 l 636 498 q 500 220 587 339 q 395 106 452 154 q 263 29 338 58 q 102 0 187 0 z "},"שּׁ":{"ha":711,"x_min":31,"x_max":796,"o":"m 762 1058 q 796 1025 796 1058 q 794 1006 796 1017 q 740 956 783 956 q 707 987 707 956 q 709 1006 707 996 q 762 1058 720 1058 m 102 0 l 31 0 l 143 875 l 203 875 l 138 378 q 279 486 225 414 q 378 703 332 557 l 431 875 l 488 875 l 435 703 q 382 559 408 617 q 321 451 357 500 q 240 369 286 401 q 131 315 194 336 l 98 59 l 115 59 q 312 117 218 59 q 472 273 405 175 q 579 498 540 372 l 696 875 l 753 875 l 636 498 q 500 220 587 339 q 395 106 452 154 q 263 29 338 58 q 102 0 187 0 m 336 349 q 371 316 371 349 q 369 298 371 308 q 315 248 357 248 q 281 279 281 248 q 284 298 281 287 q 336 349 295 349 z "},"שּׂ":{"ha":711,"x_min":31,"x_max":753,"o":"m 205 1058 q 239 1025 239 1058 q 237 1006 239 1017 q 183 956 226 956 q 150 987 150 956 q 153 1006 150 996 q 205 1058 163 1058 m 102 0 l 31 0 l 143 875 l 203 875 l 138 378 q 279 486 225 414 q 378 703 332 557 l 431 875 l 488 875 l 435 703 q 382 559 408 617 q 321 451 357 500 q 240 369 286 401 q 131 315 194 336 l 98 59 l 115 59 q 312 117 218 59 q 472 273 405 175 q 579 498 540 372 l 696 875 l 753 875 l 636 498 q 500 220 587 339 q 395 106 452 154 q 263 29 338 58 q 102 0 187 0 m 336 349 q 371 316 371 349 q 369 298 371 308 q 315 248 357 248 q 281 279 281 248 q 284 298 281 287 q 336 349 295 349 z "},"אַ":{"ha":527,"x_min":-44,"x_max":562,"o":"m 562 875 l 495 557 q 429 385 472 446 q 385 337 412 360 q 324 298 357 313 l 384 0 l 314 0 l 211 523 q 131 443 161 494 q 83 307 100 391 l 18 0 l -44 0 l 21 307 q 72 456 38 387 q 125 529 92 496 q 200 580 157 561 l 142 875 l 211 875 l 313 358 q 388 431 361 385 q 433 558 416 477 l 500 875 l 562 875 m 239 -199 l -3 -199 l 7 -150 l 250 -150 l 239 -199 z "},"אָ":{"ha":527,"x_min":-44,"x_max":562,"o":"m 562 875 l 495 557 q 429 385 472 446 q 385 337 412 360 q 324 298 357 313 l 384 0 l 314 0 l 211 523 q 131 443 161 494 q 83 307 100 391 l 18 0 l -44 0 l 21 307 q 72 456 38 387 q 125 529 92 496 q 200 580 157 561 l 142 875 l 211 875 l 313 358 q 388 431 361 385 q 433 558 416 477 l 500 875 l 562 875 m 239 -199 l 142 -199 l 113 -335 l 65 -335 l 94 -199 l -3 -199 l 7 -150 l 250 -150 l 239 -199 z "},"אּ":{"ha":527,"x_min":-44,"x_max":562,"o":"m 562 875 l 495 557 q 429 385 472 446 q 385 337 412 360 q 324 298 357 313 l 384 0 l 314 0 l 211 523 q 131 443 161 494 q 83 307 100 391 l 18 0 l -44 0 l 21 307 q 72 456 38 387 q 125 529 92 496 q 200 580 157 561 l 142 875 l 211 875 l 313 358 q 388 431 361 385 q 433 558 416 477 l 500 875 l 562 875 m 174 259 q 209 226 209 259 q 207 208 209 218 q 153 157 195 157 q 119 189 119 157 q 122 208 119 197 q 174 259 133 259 z "},"בּ":{"ha":507,"x_min":-27,"x_max":486,"o":"m 159 882 q 283 888 230 888 q 364 884 337 888 q 415 871 391 880 q 477 798 460 852 q 486 756 486 774 q 485 716 486 737 q 473 644 484 694 l 349 57 l 407 57 l 395 0 l -27 0 l -15 57 l 284 57 l 409 644 q 420 727 420 694 q 413 780 420 760 q 387 811 406 800 q 347 826 369 823 q 292 830 324 830 q 168 825 238 830 l 147 823 l 159 882 m 208 505 q 242 472 242 505 q 240 454 242 464 q 186 404 229 404 q 153 435 153 404 q 155 454 153 443 q 208 505 166 505 z "},"גּ":{"ha":445,"x_min":-15,"x_max":411,"o":"m 283 888 q 411 764 411 888 q 402 691 411 732 l 255 0 l 201 0 l 224 144 l 220 144 q 164 58 186 83 q 26 -3 109 -3 q -15 5 6 -3 l 11 68 q 45 60 24 60 q 180 135 125 60 q 264 347 235 210 l 338 691 q 346 763 346 733 q 326 811 346 792 q 265 830 307 830 q 197 819 241 830 l 210 878 q 283 888 250 888 m 185 505 q 220 472 220 505 q 218 454 220 464 q 163 404 206 404 q 130 435 130 404 q 133 454 130 443 q 185 505 144 505 z "},"דּ":{"ha":460,"x_min":92,"x_max":532,"o":"m 532 875 l 522 825 q 464 802 489 814 q 412 768 439 789 q 334 629 355 722 l 201 0 l 136 0 l 270 629 q 295 704 279 669 q 330 758 312 738 q 391 812 367 800 l 401 818 l 92 818 l 104 875 l 532 875 m 163 505 q 198 472 198 505 q 196 454 198 464 q 142 404 184 404 q 109 435 109 404 q 111 454 109 443 q 163 505 122 505 z "},"הּ":{"ha":621,"x_min":4,"x_max":581,"o":"m 190 875 q 372 888 331 888 q 445 884 413 888 q 504 870 476 880 q 547 843 531 861 q 581 741 581 806 q 568 644 581 701 l 431 0 l 366 0 l 503 644 q 514 727 514 694 q 506 780 514 760 q 476 812 497 801 q 428 826 454 823 q 370 830 401 830 q 177 816 339 830 l 190 875 m 4 0 l 121 551 l 186 551 l 68 0 l 4 0 m 323 505 q 358 472 358 505 q 356 454 358 464 q 302 404 345 404 q 269 435 269 404 q 271 454 269 443 q 323 505 282 505 z "},"וּ":{"ha":261,"x_min":-35,"x_max":256,"o":"m 5 0 l 191 875 l 256 875 l 70 0 l 5 0 m 20 505 q 55 472 55 505 q 53 454 55 464 q -1 404 41 404 q -35 435 -35 404 q -32 454 -35 443 q 20 505 -21 505 z "},"זּ":{"ha":290,"x_min":-13,"x_max":361,"o":"m 361 875 l 351 825 q 268 722 307 795 q 208 553 229 648 l 91 0 l 26 0 l 144 553 q 205 725 165 654 q 275 818 245 795 l 172 818 l 184 875 l 361 875 m 42 505 q 77 472 77 505 q 75 454 77 464 q 20 404 63 404 q -13 435 -13 404 q -10 454 -13 443 q 42 505 1 505 z "},"טּ":{"ha":600,"x_min":36,"x_max":564,"o":"m 395 888 q 564 660 564 888 q 536 437 564 568 q 204 -14 440 -14 q 36 215 36 -14 q 64 437 36 307 l 157 875 l 222 875 l 130 437 q 102 233 102 307 q 116 121 102 160 q 217 47 142 47 q 272 58 246 47 q 326 96 298 68 q 378 165 354 123 q 469 437 431 262 q 497 643 497 570 q 483 754 497 715 q 445 810 469 792 q 386 829 420 829 q 319 823 351 830 l 332 883 q 395 888 364 888 m 314 505 q 349 472 349 505 q 347 454 349 464 q 292 404 335 404 q 259 435 259 404 q 262 454 259 443 q 314 505 273 505 z "},"יּ":{"ha":254,"x_min":-21,"x_max":250,"o":"m 75 327 l 69 327 l 186 875 l 250 875 l 150 401 l 75 327 m 34 585 q 68 551 68 585 q 66 533 68 543 q 12 483 55 483 q -21 514 -21 483 q -18 533 -21 522 q 34 585 -7 585 z "},"ךּ":{"ha":461,"x_min":88,"x_max":397,"o":"m 231 888 q 397 676 397 888 q 374 489 397 597 l 199 -334 l 134 -334 l 309 489 q 330 664 330 592 q 216 827 330 827 q 102 793 161 827 l 117 863 q 231 888 170 888 m 143 505 q 178 472 178 505 q 176 454 178 464 q 121 404 164 404 q 88 435 88 404 q 91 454 88 443 q 143 505 102 505 z "},"כּ":{"ha":431,"x_min":-60,"x_max":399,"o":"m 232 888 q 399 676 399 888 q 376 489 399 597 l 349 361 q 183 31 298 117 q 41 -14 123 -14 q -60 5 -7 -14 l -47 67 q 52 45 -13 45 q 116 60 86 45 q 168 97 146 75 q 208 152 189 119 q 239 212 227 184 q 260 273 250 239 q 283 361 276 323 l 311 489 q 332 664 332 592 q 218 827 332 827 q 104 793 163 827 l 118 863 q 232 888 172 888 m 145 505 q 180 472 180 505 q 178 454 180 464 q 123 404 166 404 q 90 435 90 404 q 93 454 90 443 q 145 505 104 505 z "},"לּ":{"ha":411,"x_min":60,"x_max":484,"o":"m 484 879 l 468 804 l 263 344 l 128 0 l 62 0 l 195 336 l 411 817 l 112 817 l 165 1064 l 229 1064 l 190 879 l 484 879 m 115 505 q 150 472 150 505 q 148 454 150 464 q 94 404 136 404 q 60 435 60 404 q 63 454 60 443 q 115 505 74 505 z "},"מּ":{"ha":583,"x_min":-54,"x_max":541,"o":"m 233 783 l 237 783 q 267 819 248 800 q 306 852 286 838 q 358 877 326 865 q 427 888 390 888 q 489 874 463 888 q 526 837 514 861 q 541 768 541 809 q 536 691 541 727 q 519 599 532 655 l 393 0 l 178 0 l 190 57 l 340 57 l 455 599 q 465 648 461 629 q 473 691 469 667 q 478 731 477 715 q 477 764 478 747 q 472 792 477 782 q 460 812 467 803 q 412 830 446 830 q 345 815 377 830 q 290 777 313 800 q 227 697 245 732 l 218 682 l 11 0 l -54 0 l 153 682 q 167 762 167 726 q 159 844 167 797 l 155 875 l 223 875 q 233 783 233 831 m 304 505 q 339 472 339 505 q 337 454 339 464 q 283 404 326 404 q 250 435 250 404 q 252 454 250 443 q 304 505 263 505 z "},"נּ":{"ha":386,"x_min":-62,"x_max":358,"o":"m 231 888 q 358 764 358 888 q 349 691 358 732 l 250 223 q 222 121 240 177 q 190 33 203 66 l 176 0 l -62 0 l -50 57 l 132 57 q 186 223 169 143 l 285 691 q 293 763 293 733 q 274 811 293 792 q 213 830 254 830 q 144 819 191 830 l 157 878 q 231 888 196 888 m 132 505 q 167 472 167 505 q 165 454 167 464 q 111 404 153 404 q 77 435 77 404 q 80 454 77 443 q 132 505 91 505 z "},"סּ":{"ha":600,"x_min":36,"x_max":564,"o":"m 395 888 q 564 660 564 888 q 536 437 564 568 q 204 -14 440 -14 q 36 215 36 -14 q 64 441 36 307 q 133 665 93 576 q 245 824 174 753 l 159 819 l 172 879 q 395 888 326 888 m 102 217 q 217 47 102 47 q 272 58 246 47 q 326 96 298 68 q 378 165 354 123 q 469 437 431 262 q 497 643 497 570 q 483 753 497 715 q 382 827 456 827 l 319 826 q 204 674 247 766 q 134 454 162 583 q 102 217 102 304 m 314 505 q 349 472 349 505 q 347 454 349 464 q 292 404 335 404 q 259 435 259 404 q 262 454 259 443 q 314 505 273 505 z "},"ףּ":{"ha":618,"x_min":81,"x_max":549,"o":"m 235 299 q 127 335 165 299 q 81 469 81 378 q 93 583 81 519 q 201 803 121 718 q 382 888 280 888 q 549 661 549 888 q 522 437 549 568 l 357 -334 l 293 -334 l 457 437 q 484 650 484 564 q 368 827 484 827 q 289 804 327 827 q 225 742 252 780 q 153 583 170 665 q 140 484 140 523 q 148 414 140 445 q 182 367 157 384 q 250 350 208 350 l 260 350 l 238 299 l 235 299 m 314 625 q 349 592 349 625 q 347 574 349 584 q 292 524 335 524 q 259 555 259 524 q 262 574 259 563 q 314 625 273 625 z "},"פּ":{"ha":587,"x_min":33,"x_max":551,"o":"m 237 299 q 129 335 168 299 q 84 434 90 371 q 83 486 83 451 q 94 583 83 520 q 202 803 123 718 q 383 888 281 888 q 551 660 551 888 q 524 437 551 568 q 387 99 475 211 q 180 -14 298 -14 q 52 -3 109 -14 l 33 0 l 46 60 q 193 47 113 47 q 265 65 231 47 q 334 125 299 83 q 401 247 370 168 q 456 437 433 326 q 485 643 485 570 q 471 753 485 715 q 370 827 444 827 q 291 804 329 827 q 227 742 254 780 q 154 583 173 668 q 141 464 141 517 q 169 381 141 412 q 252 350 197 350 l 262 350 l 240 299 l 237 299 m 334 625 q 368 592 368 625 q 366 574 368 584 q 312 524 355 524 q 279 555 279 524 q 281 574 279 563 q 334 625 292 625 z "},"צּ":{"ha":512,"x_min":-53,"x_max":555,"o":"m 555 875 l 489 665 q 408 454 447 531 q 308 323 369 377 l 370 29 l 363 0 l -53 0 l -41 57 l 294 57 l 222 402 l 133 875 l 201 875 l 292 402 l 294 389 q 366 508 337 441 q 425 665 395 575 l 491 875 l 555 875 m 100 290 q 134 257 134 290 q 132 239 134 249 q 78 189 121 189 q 45 220 45 189 q 47 239 45 228 q 100 290 58 290 z "},"קּ":{"ha":578,"x_min":-64,"x_max":623,"o":"m 612 818 l 406 402 q 379 346 399 387 q 347 282 359 306 q 317 219 335 258 q 286 154 298 180 q 262 98 274 127 q 231 12 235 37 l 228 0 l 165 0 l 168 12 q 334 387 184 86 q 338 394 336 390 q 342 402 340 399 l 547 818 l 180 818 l 192 875 l 623 875 l 612 818 m -64 -334 l 117 515 l 181 515 l 1 -334 l -64 -334 m 278 505 q 313 472 313 505 q 311 454 313 464 q 256 404 299 404 q 223 435 223 404 q 226 454 223 443 q 278 505 237 505 z "},"רּ":{"ha":453,"x_min":96,"x_max":415,"o":"m 109 882 q 219 888 162 888 q 311 883 277 888 q 406 819 387 869 q 415 756 415 793 q 401 644 415 711 l 264 0 l 199 0 l 336 644 q 350 732 350 710 q 347 770 350 753 q 336 798 345 786 q 310 818 328 810 q 212 830 280 830 q 113 825 168 830 l 96 823 l 109 882 m 162 505 q 197 472 197 505 q 195 454 197 464 q 140 404 183 404 q 107 435 107 404 q 110 454 107 443 q 162 505 121 505 z "},"שּ":{"ha":711,"x_min":31,"x_max":753,"o":"m 102 0 l 31 0 l 143 875 l 203 875 l 138 378 q 279 486 225 414 q 378 703 332 557 l 431 875 l 488 875 l 435 703 q 382 559 408 617 q 321 451 357 500 q 240 369 286 401 q 131 315 194 336 l 98 59 l 115 59 q 312 117 218 59 q 472 273 405 175 q 579 498 540 372 l 696 875 l 753 875 l 636 498 q 500 220 587 339 q 395 106 452 154 q 263 29 338 58 q 102 0 187 0 m 336 349 q 371 316 371 349 q 369 298 371 308 q 315 248 357 248 q 281 279 281 248 q 284 298 281 287 q 336 349 295 349 z "},"תּ":{"ha":604,"x_min":-83,"x_max":560,"o":"m 135 873 q 336 888 269 888 q 432 884 404 888 q 486 871 460 880 q 552 798 533 852 q 560 741 560 774 q 548 644 560 700 l 411 0 l 347 0 l 484 644 q 494 726 494 692 q 486 780 494 760 q 457 811 477 800 q 414 826 437 823 q 362 830 390 830 q 243 825 335 830 l 98 138 q 50 32 81 63 q -31 0 19 0 q -83 5 -56 0 l -69 67 q -29 62 -41 62 q 33 138 17 62 l 178 819 l 122 814 l 135 873 m 315 505 q 349 472 349 505 q 347 454 349 464 q 293 404 336 404 q 260 435 260 404 q 262 454 260 443 q 315 505 273 505 z "},"וֹ":{"ha":261,"x_min":5,"x_max":278,"o":"m 243 1058 q 278 1025 278 1058 q 276 1006 278 1017 q 222 956 264 956 q 189 987 189 956 q 191 1006 189 996 q 243 1058 202 1058 m 5 0 l 191 875 l 256 875 l 70 0 l 5 0 z "}," ":{"ha":235,"x_min":0,"x_max":0,"o":""}}}
